# Blender v3.1.2 OBJ File: 'plastic barrel.blend'
# www.blender.org
mtllib plastic barrel.mtl
o plastic_barrel_Cylinder.001
v -0.000000 -0.500000 -0.274021
v 0.053459 -0.500000 -0.268756
v 0.104863 -0.500000 -0.253162
v 0.152238 -0.500000 -0.227840
v 0.193762 -0.500000 -0.193762
v 0.227840 -0.500000 -0.152238
v 0.253163 -0.500000 -0.104863
v 0.268756 -0.500000 -0.053459
v 0.274021 -0.500000 0.000000
v 0.268756 -0.500000 0.053459
v 0.253163 -0.500000 0.104863
v 0.227840 -0.500000 0.152238
v 0.193762 -0.500000 0.193762
v 0.152238 -0.500000 0.227840
v 0.104863 -0.500000 0.253163
v 0.053459 -0.500000 0.268756
v -0.000000 -0.500000 0.274021
v -0.053459 -0.500000 0.268756
v -0.104863 -0.500000 0.253163
v -0.152238 -0.500000 0.227840
v -0.193762 -0.500000 0.193762
v -0.227840 -0.500000 0.152238
v -0.253163 -0.500000 0.104863
v -0.268756 -0.500000 0.053459
v -0.274021 -0.500000 0.000000
v -0.268756 -0.500000 -0.053459
v -0.253163 -0.500000 -0.104863
v -0.227840 -0.500000 -0.152238
v -0.193762 -0.500000 -0.193762
v -0.152238 -0.500000 -0.227840
v -0.104863 -0.500000 -0.253162
v -0.053459 -0.500000 -0.268756
v 0.000000 -0.278337 -0.311224
v 0.060717 -0.278337 -0.305244
v 0.119100 -0.278337 -0.287533
v 0.172907 -0.278337 -0.258773
v 0.220068 -0.278337 -0.220068
v 0.258773 -0.278337 -0.172907
v 0.287533 -0.278337 -0.119100
v 0.305244 -0.278337 -0.060717
v 0.311224 -0.278337 0.000000
v 0.305244 -0.278337 0.060717
v 0.287533 -0.278337 0.119100
v 0.258773 -0.278337 0.172907
v 0.220068 -0.278337 0.220068
v 0.172907 -0.278337 0.258773
v 0.119100 -0.278337 0.287533
v 0.060717 -0.278337 0.305244
v -0.000000 -0.278337 0.311224
v -0.060717 -0.278337 0.305244
v -0.119100 -0.278337 0.287533
v -0.172907 -0.278337 0.258773
v -0.220068 -0.278337 0.220068
v -0.258773 -0.278337 0.172907
v -0.287533 -0.278337 0.119100
v -0.305244 -0.278337 0.060717
v -0.311224 -0.278337 0.000000
v -0.305244 -0.278337 -0.060717
v -0.287533 -0.278337 -0.119100
v -0.258773 -0.278337 -0.172907
v -0.220068 -0.278337 -0.220068
v -0.172907 -0.278337 -0.258773
v -0.119100 -0.278337 -0.287533
v -0.060717 -0.278337 -0.305244
v 0.057236 -0.442162 -0.287747
v 0.112273 -0.442162 -0.271052
v 0.162996 -0.442162 -0.243940
v 0.207454 -0.442162 -0.207454
v 0.243940 -0.442162 -0.162995
v 0.271052 -0.442162 -0.112273
v 0.287747 -0.442162 -0.057236
v 0.293384 -0.442162 0.000000
v 0.287747 -0.442162 0.057237
v 0.271052 -0.442162 0.112273
v 0.243940 -0.442162 0.162996
v 0.207454 -0.442162 0.207454
v 0.162996 -0.442162 0.243940
v 0.112273 -0.442162 0.271052
v 0.057236 -0.442162 0.287747
v -0.000000 -0.442162 0.293384
v -0.057236 -0.442162 0.287747
v -0.112273 -0.442162 0.271052
v -0.162996 -0.442162 0.243940
v -0.207454 -0.442162 0.207454
v -0.243940 -0.442162 0.162996
v -0.271052 -0.442162 0.112273
v -0.287747 -0.442162 0.057237
v -0.293384 -0.442162 0.000000
v -0.287747 -0.442162 -0.057236
v -0.271052 -0.442162 -0.112273
v -0.243940 -0.442162 -0.162995
v -0.207454 -0.442162 -0.207454
v -0.162996 -0.442162 -0.243940
v -0.112273 -0.442162 -0.271052
v -0.057236 -0.442162 -0.287747
v -0.000000 -0.442162 -0.293384
v -0.000000 -0.360249 -0.307974
v 0.060083 -0.360249 -0.302057
v 0.117857 -0.360249 -0.284531
v 0.171101 -0.360249 -0.256071
v 0.217771 -0.360249 -0.217771
v 0.256071 -0.360249 -0.171101
v 0.284531 -0.360249 -0.117857
v 0.302057 -0.360249 -0.060083
v 0.307974 -0.360249 0.000000
v 0.302057 -0.360249 0.060083
v 0.284531 -0.360249 0.117857
v 0.256071 -0.360249 0.171101
v 0.217771 -0.360249 0.217771
v 0.171101 -0.360249 0.256071
v 0.117857 -0.360249 0.284531
v 0.060083 -0.360249 0.302057
v -0.000000 -0.360249 0.307974
v -0.060083 -0.360249 0.302057
v -0.117857 -0.360249 0.284531
v -0.171101 -0.360249 0.256071
v -0.217771 -0.360249 0.217771
v -0.256071 -0.360249 0.171102
v -0.284531 -0.360249 0.117857
v -0.302057 -0.360249 0.060083
v -0.307974 -0.360249 0.000000
v -0.302057 -0.360249 -0.060083
v -0.284531 -0.360249 -0.117857
v -0.256071 -0.360249 -0.171101
v -0.217771 -0.360249 -0.217771
v -0.171101 -0.360249 -0.256071
v -0.117857 -0.360249 -0.284531
v -0.060083 -0.360249 -0.302057
v -0.000000 0.500000 -0.274021
v 0.053459 0.500000 -0.268756
v 0.104863 0.500000 -0.253163
v 0.152238 0.500000 -0.227840
v 0.193762 0.500000 -0.193762
v 0.227840 0.500000 -0.152238
v 0.253163 0.500000 -0.104863
v 0.268756 0.500000 -0.053459
v 0.274021 0.500000 -0.000000
v 0.268756 0.500000 0.053459
v 0.253163 0.500000 0.104863
v 0.227840 0.500000 0.152238
v 0.193762 0.500000 0.193762
v 0.152238 0.500000 0.227840
v 0.104863 0.500000 0.253162
v 0.053459 0.500000 0.268756
v -0.000000 0.500000 0.274021
v -0.053459 0.500000 0.268756
v -0.104863 0.500000 0.253162
v -0.152238 0.500000 0.227840
v -0.193762 0.500000 0.193762
v -0.227840 0.500000 0.152238
v -0.253163 0.500000 0.104863
v -0.268756 0.500000 0.053459
v -0.274021 0.500000 -0.000000
v -0.268756 0.500000 -0.053459
v -0.253163 0.500000 -0.104863
v -0.227840 0.500000 -0.152238
v -0.193762 0.500000 -0.193762
v -0.152238 0.500000 -0.227840
v -0.104863 0.500000 -0.253163
v -0.053459 0.500000 -0.268756
v 0.000000 0.278337 -0.311224
v 0.060717 0.278337 -0.305244
v 0.119100 0.278337 -0.287533
v 0.172907 0.278337 -0.258773
v 0.220068 0.278337 -0.220068
v 0.258773 0.278337 -0.172907
v 0.287533 0.278337 -0.119100
v 0.305244 0.278337 -0.060717
v 0.311224 0.278337 -0.000000
v 0.305244 0.278337 0.060717
v 0.287533 0.278337 0.119100
v 0.258773 0.278337 0.172907
v 0.220068 0.278337 0.220068
v 0.172907 0.278337 0.258773
v 0.119100 0.278337 0.287533
v 0.060717 0.278337 0.305244
v -0.000000 0.278337 0.311224
v -0.060717 0.278337 0.305244
v -0.119100 0.278337 0.287533
v -0.172907 0.278337 0.258773
v -0.220068 0.278337 0.220068
v -0.258773 0.278337 0.172907
v -0.287533 0.278337 0.119100
v -0.305244 0.278337 0.060717
v -0.311224 0.278337 -0.000000
v -0.305244 0.278337 -0.060717
v -0.287533 0.278337 -0.119100
v -0.258773 0.278337 -0.172907
v -0.220068 0.278337 -0.220068
v -0.172907 0.278337 -0.258773
v -0.119100 0.278337 -0.287533
v -0.060717 0.278337 -0.305244
v 0.057236 0.442162 -0.287747
v 0.112273 0.442162 -0.271052
v 0.162996 0.442162 -0.243940
v 0.207454 0.442162 -0.207454
v 0.243940 0.442162 -0.162996
v 0.271052 0.442162 -0.112273
v 0.287747 0.442162 -0.057237
v 0.293384 0.442162 -0.000000
v 0.287747 0.442162 0.057236
v 0.271052 0.442162 0.112273
v 0.243940 0.442162 0.162995
v 0.207454 0.442162 0.207454
v 0.162996 0.442162 0.243940
v 0.112273 0.442162 0.271052
v 0.057236 0.442162 0.287747
v -0.000000 0.442162 0.293384
v -0.057236 0.442162 0.287747
v -0.112273 0.442162 0.271052
v -0.162996 0.442162 0.243940
v -0.207454 0.442162 0.207454
v -0.243940 0.442162 0.162996
v -0.271052 0.442162 0.112273
v -0.287747 0.442162 0.057236
v -0.293384 0.442162 -0.000000
v -0.287747 0.442162 -0.057237
v -0.271052 0.442162 -0.112273
v -0.243940 0.442162 -0.162996
v -0.207454 0.442162 -0.207454
v -0.162996 0.442162 -0.243940
v -0.112273 0.442162 -0.271052
v -0.057236 0.442162 -0.287747
v -0.000000 0.442162 -0.293384
v -0.000000 0.360249 -0.307974
v 0.060083 0.360249 -0.302057
v 0.117857 0.360249 -0.284531
v 0.171101 0.360249 -0.256071
v 0.217771 0.360249 -0.217771
v 0.256071 0.360249 -0.171101
v 0.284531 0.360249 -0.117857
v 0.302057 0.360249 -0.060083
v 0.307974 0.360249 -0.000000
v 0.302057 0.360249 0.060083
v 0.284531 0.360249 0.117857
v 0.256071 0.360249 0.171101
v 0.217771 0.360249 0.217771
v 0.171101 0.360249 0.256071
v 0.117857 0.360249 0.284531
v 0.060083 0.360249 0.302057
v -0.000000 0.360249 0.307974
v -0.060083 0.360249 0.302057
v -0.117857 0.360249 0.284531
v -0.171101 0.360249 0.256071
v -0.217771 0.360249 0.217771
v -0.256071 0.360249 0.171101
v -0.284531 0.360249 0.117857
v -0.302057 0.360249 0.060083
v -0.307974 0.360249 -0.000000
v -0.302057 0.360249 -0.060083
v -0.284531 0.360249 -0.117857
v -0.256071 0.360249 -0.171101
v -0.217771 0.360249 -0.217771
v -0.171101 0.360249 -0.256071
v -0.117857 0.360249 -0.284531
v -0.060083 0.360249 -0.302057
v -0.000000 -0.511851 -0.263273
v 0.051362 -0.511851 -0.258214
v 0.100750 -0.511851 -0.243232
v 0.146266 -0.511851 -0.218903
v 0.186162 -0.511851 -0.186162
v 0.218903 -0.511851 -0.146266
v 0.243232 -0.511851 -0.100750
v 0.258214 -0.511851 -0.051362
v 0.263273 -0.511851 0.000000
v 0.258214 -0.511851 0.051362
v 0.243232 -0.511851 0.100750
v 0.218903 -0.511851 0.146267
v 0.186162 -0.511851 0.186162
v 0.146266 -0.511851 0.218903
v 0.100750 -0.511851 0.243232
v 0.051362 -0.511851 0.258214
v -0.000000 -0.511851 0.263273
v -0.051362 -0.511851 0.258214
v -0.100750 -0.511851 0.243232
v -0.146267 -0.511851 0.218903
v -0.186162 -0.511851 0.186162
v -0.218903 -0.511851 0.146267
v -0.243232 -0.511851 0.100750
v -0.258214 -0.511851 0.051362
v -0.263273 -0.511851 0.000000
v -0.258214 -0.511851 -0.051362
v -0.243232 -0.511851 -0.100750
v -0.218903 -0.511851 -0.146266
v -0.186162 -0.511851 -0.186162
v -0.146267 -0.511851 -0.218903
v -0.100750 -0.511851 -0.243232
v -0.051362 -0.511851 -0.258214
v -0.000000 -0.511851 0.000000
v 0.000000 0.500000 -0.301423
v 0.058805 0.500000 -0.295632
v 0.115350 0.500000 -0.278479
v 0.167462 0.500000 -0.250624
v 0.213138 0.500000 -0.213139
v 0.250624 0.500000 -0.167462
v 0.278479 0.500000 -0.115350
v 0.295631 0.500000 -0.058805
v 0.301423 0.500000 -0.000000
v 0.295631 0.500000 0.058805
v 0.278479 0.500000 0.115350
v 0.250624 0.500000 0.167462
v 0.213138 0.500000 0.213138
v 0.167462 0.500000 0.250624
v 0.115350 0.500000 0.278479
v -0.167462 0.500000 0.250624
v -0.213138 0.500000 0.213138
v -0.250624 0.500000 0.167462
v -0.278479 0.500000 0.115350
v -0.295631 0.500000 0.058805
v -0.301423 0.500000 -0.000000
v -0.295631 0.500000 -0.058805
v -0.278479 0.500000 -0.115350
v -0.250624 0.500000 -0.167462
v -0.213138 0.500000 -0.213138
v -0.167462 0.500000 -0.250624
v -0.115350 0.500000 -0.278479
v -0.058805 0.500000 -0.295632
v 0.000000 0.518046 -0.301423
v 0.058805 0.518046 -0.295632
v 0.115350 0.518046 -0.278479
v 0.167462 0.518046 -0.250624
v 0.213138 0.518046 -0.213139
v 0.250624 0.518046 -0.167462
v 0.278479 0.518046 -0.115350
v 0.295631 0.518046 -0.058805
v 0.301423 0.518046 -0.000000
v 0.295631 0.518046 0.058805
v 0.278479 0.518046 0.115350
v 0.250624 0.518046 0.167462
v 0.213138 0.518046 0.213138
v 0.167462 0.518046 0.250624
v 0.115350 0.518046 0.278479
v -0.115350 0.518046 0.278479
v -0.167462 0.518046 0.250624
v -0.213138 0.518046 0.213138
v -0.250624 0.518046 0.167462
v -0.278479 0.518046 0.115350
v -0.295631 0.518046 0.058805
v -0.301423 0.518046 -0.000000
v -0.295631 0.518046 -0.058805
v -0.278479 0.518046 -0.115350
v -0.250624 0.518046 -0.167462
v -0.213138 0.518046 -0.213139
v -0.167462 0.518046 -0.250624
v -0.115350 0.518046 -0.278479
v -0.058805 0.518046 -0.295632
v 0.000000 0.518046 -0.294071
v 0.057370 0.518046 -0.288420
v 0.112536 0.518046 -0.271686
v 0.163377 0.518046 -0.244511
v 0.207940 0.518046 -0.207940
v 0.244511 0.518046 -0.163377
v 0.271686 0.518046 -0.112536
v 0.288420 0.518046 -0.057370
v 0.294071 0.518046 -0.000000
v 0.288420 0.518046 0.057370
v 0.271686 0.518046 0.112536
v 0.244511 0.518046 0.163377
v 0.207940 0.518046 0.207939
v 0.163377 0.518046 0.244511
v 0.112536 0.518046 0.271686
v 0.057370 0.523827 0.288420
v -0.000000 0.523827 0.294071
v -0.057370 0.523827 0.288420
v -0.112536 0.518046 0.271686
v -0.163377 0.518046 0.244511
v -0.207940 0.518046 0.207939
v -0.244511 0.518046 0.163377
v -0.271686 0.518046 0.112536
v -0.288420 0.518046 0.057370
v -0.294071 0.518046 -0.000000
v -0.288420 0.518046 -0.057370
v -0.271686 0.518046 -0.112536
v -0.244511 0.518046 -0.163377
v -0.207940 0.518046 -0.207940
v -0.163377 0.518046 -0.244511
v -0.112536 0.518046 -0.271686
v -0.057370 0.518046 -0.288421
v 0.000000 0.525131 -0.294071
v 0.057370 0.525131 -0.288420
v 0.112536 0.525131 -0.271686
v 0.163377 0.525131 -0.244511
v 0.207940 0.525131 -0.207940
v 0.244511 0.525131 -0.163377
v 0.271686 0.525131 -0.112536
v 0.288420 0.525131 -0.057370
v 0.294071 0.525131 -0.000000
v 0.288420 0.525131 0.057370
v 0.271686 0.525131 0.112536
v 0.244511 0.525131 0.163377
v 0.207940 0.525131 0.207939
v 0.163377 0.525131 0.244511
v 0.112536 0.525131 0.271686
v 0.057370 0.525131 0.288420
v -0.000000 0.525131 0.294071
v -0.057370 0.525131 0.288420
v -0.112536 0.525131 0.271686
v -0.163377 0.525131 0.244511
v -0.207940 0.525131 0.207939
v -0.244511 0.525131 0.163377
v -0.271686 0.525131 0.112536
v -0.288420 0.525131 0.057370
v -0.294071 0.525131 -0.000000
v -0.288420 0.525131 -0.057370
v -0.271686 0.525131 -0.112536
v -0.244511 0.525131 -0.163377
v -0.207940 0.525131 -0.207940
v -0.163377 0.525131 -0.244511
v -0.112536 0.525131 -0.271686
v -0.057370 0.525131 -0.288421
v 0.000000 0.525131 -0.288852
v 0.056352 0.525131 -0.283302
v 0.110539 0.525131 -0.266865
v 0.160478 0.525131 -0.240172
v 0.204249 0.525131 -0.204249
v 0.240172 0.525131 -0.160478
v 0.266865 0.525131 -0.110539
v 0.283302 0.525131 -0.056352
v 0.288852 0.525131 -0.000000
v 0.283302 0.525131 0.056352
v 0.266865 0.525131 0.110539
v 0.240172 0.525131 0.160478
v 0.204249 0.525131 0.204249
v 0.160478 0.525131 0.240172
v 0.110539 0.525131 0.266865
v 0.056352 0.525131 0.283302
v -0.000000 0.525131 0.288852
v -0.056352 0.525131 0.283302
v -0.110539 0.525131 0.266865
v -0.160478 0.525131 0.240172
v -0.204249 0.525131 0.204249
v -0.240172 0.525131 0.160478
v -0.266865 0.525131 0.110539
v -0.283302 0.525131 0.056352
v -0.288852 0.525131 -0.000000
v -0.283302 0.525131 -0.056352
v -0.266865 0.525131 -0.110539
v -0.240172 0.525131 -0.160478
v -0.204249 0.525131 -0.204249
v -0.160478 0.525131 -0.240172
v -0.110539 0.525131 -0.266865
v -0.056352 0.525131 -0.283302
v 0.000000 0.558264 -0.288852
v 0.056352 0.558264 -0.283302
v 0.110539 0.558264 -0.266865
v 0.160478 0.558264 -0.240172
v 0.204249 0.558264 -0.204249
v 0.240172 0.558264 -0.160478
v 0.266865 0.558264 -0.110539
v 0.283302 0.558264 -0.056352
v 0.288852 0.558264 -0.000000
v 0.283302 0.558264 0.056352
v 0.266865 0.558264 0.110539
v 0.240172 0.558264 0.160478
v 0.204249 0.558264 0.204249
v 0.160478 0.558264 0.240172
v 0.110539 0.558264 0.266865
v 0.056352 0.558264 0.283302
v -0.000000 0.558264 0.288852
v -0.056352 0.558264 0.283302
v -0.110539 0.558264 0.266865
v -0.160478 0.558264 0.240172
v -0.204249 0.558264 0.204249
v -0.240172 0.558264 0.160478
v -0.266865 0.558264 0.110539
v -0.283302 0.558264 0.056352
v -0.288852 0.558264 -0.000000
v -0.283302 0.558264 -0.056352
v -0.266865 0.558264 -0.110539
v -0.240172 0.558264 -0.160478
v -0.204249 0.558264 -0.204249
v -0.160478 0.558264 -0.240172
v -0.110539 0.558264 -0.266865
v -0.056352 0.558264 -0.283302
v -0.115350 0.500000 0.278479
v 0.057370 0.500000 0.288420
v -0.000000 0.500000 0.294071
v -0.057370 0.500000 0.288420
v -0.112536 0.500000 0.271686
v -0.107939 0.525131 0.273080
v -0.105786 0.523827 0.273734
v -0.000000 0.501689 0.294071
v -0.057370 0.501689 0.288420
v 0.057370 0.501689 0.288420
v -0.105786 0.501689 0.273734
v 0.112536 0.500000 0.271686
v 0.057370 0.523827 0.293949
v -0.105786 0.523827 0.279262
v -0.057370 0.501689 0.293949
v 0.057370 0.501689 0.293949
v -0.105786 0.501689 0.279262
v -0.107939 0.520411 0.273080
v -0.109180 0.512758 0.273080
v -0.107939 0.505106 0.273080
v -0.000000 0.501689 0.299599
v -0.000000 0.512758 0.299599
v -0.000000 0.523827 0.299599
v -0.057370 0.523827 0.293949
v -0.057370 0.512758 0.293949
v 0.057370 0.512758 0.293949
v -0.107939 0.520411 0.278609
v -0.109180 0.512758 0.278609
v -0.107939 0.505106 0.278609
v 0.111833 0.523827 0.271899
v 0.111833 0.516185 0.271899
v 0.111833 0.501689 0.271899
v 0.111833 0.523827 0.277428
v 0.111833 0.501689 0.277428
v 0.111833 0.503390 0.277428
v 0.111833 0.512758 0.277428
v 0.111833 0.522127 0.277428
v 0.088959 0.523827 0.284367
v 0.088959 0.522006 0.284367
v 0.091361 0.518046 -0.285756
v 0.088959 0.512758 0.284367
v 0.088959 0.501689 0.284367
v 0.088959 0.503511 0.284367
v 0.091361 0.518046 -0.278110
v 0.109566 0.512758 0.278116
v 0.109566 0.503390 0.278116
v 0.109566 0.522127 0.278116
v 0.108030 0.522127 0.273053
v 0.087423 0.522006 0.279304
v 0.108030 0.512758 0.273053
v 0.087423 0.512758 0.279304
v 0.108030 0.503390 0.273053
v 0.087423 0.503511 0.279304
v 0.000000 0.560042 -0.286979
v 0.055987 0.560042 -0.281464
v 0.109822 0.560042 -0.265134
v 0.159437 0.560042 -0.238614
v 0.202924 0.560042 -0.202925
v 0.238614 0.560042 -0.159437
v 0.265134 0.560042 -0.109822
v 0.281464 0.560042 -0.055987
v 0.286979 0.560042 -0.000000
v 0.281464 0.560042 0.055987
v 0.265134 0.560042 0.109822
v 0.238614 0.560042 0.159437
v 0.202924 0.560042 0.202924
v 0.159437 0.560042 0.238614
v 0.109822 0.560042 0.265134
v 0.055987 0.560042 0.281464
v -0.000000 0.560042 0.286978
v -0.055987 0.560042 0.281464
v -0.109822 0.560042 0.265134
v -0.159437 0.560042 0.238614
v -0.202924 0.560042 0.202924
v -0.238614 0.560042 0.159437
v -0.265134 0.560042 0.109822
v -0.281464 0.560042 0.055987
v -0.286979 0.560042 -0.000000
v -0.281464 0.560042 -0.055987
v -0.265134 0.560042 -0.109822
v -0.238614 0.560042 -0.159437
v -0.202924 0.560042 -0.202925
v -0.159437 0.560042 -0.238614
v -0.109822 0.560042 -0.265134
v -0.055987 0.560042 -0.281464
v 0.000000 0.560042 -0.272783
v 0.053217 0.560042 -0.267541
v 0.104389 0.560042 -0.252019
v 0.151550 0.560042 -0.226811
v 0.192887 0.560042 -0.192887
v 0.226811 0.560042 -0.151550
v 0.252018 0.560042 -0.104390
v 0.267541 0.560042 -0.053217
v 0.272783 0.560042 -0.000000
v 0.267541 0.560042 0.053217
v 0.252018 0.560042 0.104389
v 0.226811 0.560042 0.151550
v 0.192887 0.560042 0.192886
v 0.151550 0.560042 0.226811
v 0.104389 0.560042 0.252018
v 0.053217 0.560042 0.267541
v -0.000000 0.560042 0.272783
v -0.053217 0.560042 0.267541
v -0.104389 0.560042 0.252018
v -0.151550 0.560042 0.226811
v -0.192887 0.560042 0.192887
v -0.226811 0.560042 0.151550
v -0.252018 0.560042 0.104389
v -0.267541 0.560042 0.053217
v -0.272783 0.560042 -0.000000
v -0.267541 0.560042 -0.053217
v -0.252018 0.560042 -0.104390
v -0.226811 0.560042 -0.151550
v -0.192887 0.560042 -0.192887
v -0.151550 0.560042 -0.226811
v -0.104389 0.560042 -0.252019
v -0.053217 0.560042 -0.267541
v 0.000000 0.539071 -0.272783
v 0.053217 0.539071 -0.267541
v 0.104389 0.539071 -0.252019
v 0.151550 0.539071 -0.226811
v 0.192887 0.539071 -0.192887
v 0.226811 0.539071 -0.151550
v 0.252018 0.539071 -0.104390
v 0.267541 0.539071 -0.053217
v 0.272783 0.539071 -0.000000
v 0.267541 0.539071 0.053217
v 0.252018 0.539071 0.104389
v 0.226811 0.539071 0.151550
v 0.192887 0.539071 0.192886
v 0.151550 0.539071 0.226811
v 0.104389 0.539071 0.252018
v 0.053217 0.539071 0.267541
v -0.000000 0.539071 0.272783
v -0.053217 0.539071 0.267541
v -0.104389 0.539071 0.252018
v -0.151550 0.539071 0.226811
v -0.192887 0.539071 0.192887
v -0.226811 0.539071 0.151550
v -0.252018 0.539071 0.104389
v -0.267541 0.539071 0.053217
v -0.272783 0.539071 -0.000000
v -0.267541 0.539071 -0.053217
v -0.252018 0.539071 -0.104390
v -0.226811 0.539071 -0.151550
v -0.192887 0.539071 -0.192887
v -0.151550 0.539071 -0.226811
v -0.104389 0.539071 -0.252019
v -0.053217 0.539071 -0.267541
v 0.000000 0.539071 -0.000000
vt 0.748248 0.948411
vt 0.747371 0.952112
vt 0.756698 0.954208
vt 0.757575 0.950507
vt 0.756698 0.954208
vt 0.747371 0.952112
vt 0.748248 0.948411
vt 0.757575 0.950507
vt 0.001953 0.090931
vt 0.001953 0.059807
vt 0.009805 0.059807
vt 0.009805 0.090931
vt 0.001953 0.033077
vt 0.001953 0.001953
vt 0.009805 0.001953
vt 0.009805 0.033077
vt 0.504658 0.038267
vt 0.460323 0.035143
vt 0.461118 0.003679
vt 0.507403 0.007191
vt 0.502915 0.069268
vt 0.459423 0.066550
vt 0.501809 0.100161
vt 0.458624 0.097874
vt 0.501100 0.130965
vt 0.457982 0.129072
vt 0.500642 0.161718
vt 0.457495 0.160197
vt 0.500340 0.192450
vt 0.457135 0.191254
vt 0.500139 0.223179
vt 0.456872 0.222254
vt 0.500000 0.253913
vt 0.456680 0.253208
vt 0.499903 0.284655
vt 0.456539 0.284123
vt 0.499833 0.315407
vt 0.456433 0.315010
vt 0.499782 0.346165
vt 0.456351 0.345875
vt 0.499748 0.376930
vt 0.456302 0.376719
vt 0.499722 0.407700
vt 0.456268 0.407551
vt 0.499699 0.438475
vt 0.456233 0.438378
vt 0.499682 0.469251
vt 0.456209 0.469200
vt 0.499670 0.500028
vt 0.456196 0.500018
vt 0.499664 0.530805
vt 0.456191 0.530837
vt 0.499663 0.561580
vt 0.456197 0.561657
vt 0.499668 0.592353
vt 0.456213 0.592482
vt 0.499681 0.623123
vt 0.456241 0.623315
vt 0.499702 0.653887
vt 0.456284 0.654159
vt 0.499735 0.684646
vt 0.456346 0.685019
vt 0.499786 0.715397
vt 0.456434 0.715902
vt 0.499864 0.746141
vt 0.456558 0.746814
vt 0.499983 0.776878
vt 0.456733 0.777766
vt 0.500166 0.807613
vt 0.456978 0.808768
vt 0.500451 0.838354
vt 0.457319 0.839833
vt 0.500899 0.869115
vt 0.457785 0.870976
vt 0.501598 0.899920
vt 0.458409 0.902174
vt 0.502690 0.930801
vt 0.459194 0.933458
vt 0.504418 0.961768
vt 0.460084 0.964897
vt 0.507196 0.992728
vt 0.460887 0.996444
vt 0.585079 0.979908
vt 0.552707 0.986008
vt 0.548863 0.956589
vt 0.581033 0.952322
vt 0.546668 0.926898
vt 0.578840 0.924019
vt 0.545438 0.897011
vt 0.577649 0.895102
vt 0.544745 0.866962
vt 0.576995 0.865697
vt 0.544349 0.836769
vt 0.576631 0.835923
vt 0.544119 0.806451
vt 0.576424 0.805877
vt 0.543984 0.776028
vt 0.576305 0.775631
vt 0.543904 0.745519
vt 0.576235 0.745241
vt 0.543856 0.714943
vt 0.576194 0.714745
vt 0.543827 0.684316
vt 0.576170 0.684173
vt 0.543809 0.653650
vt 0.576156 0.653547
vt 0.543800 0.622956
vt 0.576149 0.622881
vt 0.543796 0.592240
vt 0.576147 0.592187
vt 0.543796 0.561511
vt 0.576148 0.561475
vt 0.543801 0.530773
vt 0.576153 0.530751
vt 0.543808 0.500030
vt 0.576161 0.500022
vt 0.543819 0.469288
vt 0.576172 0.469293
vt 0.543834 0.438549
vt 0.576186 0.438570
vt 0.543851 0.407820
vt 0.576203 0.407858
vt 0.543872 0.377105
vt 0.576224 0.377166
vt 0.543900 0.346411
vt 0.576250 0.346502
vt 0.543938 0.315747
vt 0.576286 0.315880
vt 0.543990 0.285122
vt 0.576336 0.285313
vt 0.544064 0.254550
vt 0.576407 0.254824
vt 0.544173 0.224046
vt 0.576512 0.224440
vt 0.544336 0.193629
vt 0.576670 0.194202
vt 0.544594 0.163319
vt 0.576920 0.164163
vt 0.545013 0.133135
vt 0.577331 0.134394
vt 0.545723 0.103090
vt 0.578028 0.104988
vt 0.546961 0.073188
vt 0.579248 0.076059
vt 0.549162 0.043428
vt 0.581438 0.047714
vt 0.553012 0.013859
vt 0.585502 0.019988
vt 0.162388 0.189792
vt 0.162468 0.158629
vt 0.161759 0.314040
vt 0.161922 0.283020
vt 0.162254 0.220905
vt 0.162092 0.251977
vt 0.161611 0.345044
vt 0.161232 0.468977
vt 0.161280 0.438002
vt 0.161356 0.407025
vt 0.161212 0.499950
vt 0.161258 0.561899
vt 0.161221 0.530924
vt 0.162253 0.810104
vt 0.162130 0.778999
vt 0.161323 0.592879
vt 0.161415 0.623864
vt 0.161532 0.654858
vt 0.161669 0.685864
vt 0.161822 0.716886
vt 0.161980 0.747928
vt 0.161716 0.033390
vt 0.161404 0.001953
vt 0.162322 0.841253
vt 0.162306 0.872454
vt 0.161511 0.966540
vt 0.161894 0.935129
vt 0.161163 0.998047
vt 0.117505 0.035638
vt 0.115488 0.004506
vt 0.118581 0.066685
vt 0.162082 0.064778
vt 0.119094 0.097648
vt 0.162339 0.096105
vt 0.119268 0.128563
vt 0.162463 0.127404
vt 0.119246 0.159457
vt 0.119116 0.190352
vt 0.118933 0.221258
vt 0.118729 0.252179
vt 0.118526 0.283117
vt 0.118335 0.314068
vt 0.118164 0.345030
vt 0.118014 0.376002
vt 0.161471 0.376039
vt 0.117893 0.406982
vt 0.117807 0.437966
vt 0.117754 0.468953
vt 0.117732 0.499941
vt 0.117743 0.530929
vt 0.117785 0.561916
vt 0.117859 0.592900
vt 0.117964 0.623880
vt 0.118097 0.654853
vt 0.118257 0.685817
vt 0.118438 0.716769
vt 0.118632 0.747707
vt 0.118825 0.778629
vt 0.118997 0.809536
vt 0.119113 0.840431
vt 0.119122 0.871327
vt 0.118931 0.902246
vt 0.162168 0.903750
vt 0.118399 0.933211
vt 0.117305 0.964230
vt 0.115230 0.995249
vt 0.037652 0.984919
vt 0.040664 0.957098
vt 0.072907 0.960200
vt 0.069960 0.989755
vt 0.042129 0.928508
vt 0.074374 0.930364
vt 0.042741 0.899258
vt 0.075008 0.900299
vt 0.042904 0.869500
vt 0.075194 0.870037
vt 0.042839 0.839369
vt 0.075148 0.839607
vt 0.042667 0.808969
vt 0.074990 0.809035
vt 0.042450 0.778379
vt 0.074783 0.778348
vt 0.042224 0.747652
vt 0.074562 0.747572
vt 0.042006 0.716827
vt 0.074348 0.716726
vt 0.041807 0.685932
vt 0.074153 0.685828
vt 0.041634 0.654986
vt 0.073982 0.654891
vt 0.041491 0.624004
vt 0.073840 0.623926
vt 0.041379 0.592997
vt 0.073729 0.592941
vt 0.041300 0.561974
vt 0.073651 0.561942
vt 0.041255 0.530940
vt 0.073606 0.530935
vt 0.041243 0.499902
vt 0.073594 0.499924
vt 0.041265 0.468864
vt 0.073616 0.468914
vt 0.041321 0.437830
vt 0.073672 0.437907
vt 0.041411 0.406807
vt 0.073762 0.406908
vt 0.041534 0.375801
vt 0.073885 0.375923
vt 0.041688 0.344822
vt 0.074038 0.344960
vt 0.041869 0.313880
vt 0.074218 0.314025
vt 0.042072 0.282989
vt 0.074421 0.283129
vt 0.042291 0.252170
vt 0.074639 0.252286
vt 0.042515 0.221449
vt 0.074862 0.221512
vt 0.042722 0.190866
vt 0.075069 0.190829
vt 0.042878 0.160474
vt 0.075226 0.160262
vt 0.042920 0.130348
vt 0.075271 0.129837
vt 0.042731 0.100590
vt 0.075089 0.099579
vt 0.042103 0.071326
vt 0.074470 0.069503
vt 0.040647 0.042691
vt 0.073027 0.039611
vt 0.037652 0.014750
vt 0.070109 0.009911
vt 0.584805 0.285343
vt 0.584755 0.315903
vt 0.586120 0.894792
vt 0.587306 0.923468
vt 0.587696 0.076617
vt 0.586490 0.105317
vt 0.584639 0.684168
vt 0.584663 0.714734
vt 0.584641 0.469303
vt 0.584630 0.500031
vt 0.584876 0.254864
vt 0.585467 0.865520
vt 0.589842 0.048692
vt 0.584625 0.653545
vt 0.584655 0.438581
vt 0.584980 0.224497
vt 0.585101 0.835820
vt 0.593809 0.021802
vt 0.584618 0.622882
vt 0.584672 0.407871
vt 0.585138 0.194285
vt 0.584894 0.805816
vt 0.584616 0.592191
vt 0.584692 0.377181
vt 0.585388 0.164288
vt 0.584774 0.775596
vt 0.584617 0.561480
vt 0.584719 0.346521
vt 0.589468 0.951334
vt 0.593432 0.978115
vt 0.585797 0.134593
vt 0.584704 0.745220
vt 0.584622 0.530758
vt 0.783881 0.923510
vt 0.759770 0.923510
vt 0.771825 0.804323
vt 0.829803 0.698701
vt 0.849850 0.711744
vt 0.713848 0.698701
vt 0.736123 0.689716
vt 0.736123 0.918930
vt 0.866898 0.728346
vt 0.759770 0.685136
vt 0.713848 0.909945
vt 0.880293 0.747867
vt 0.783881 0.685136
vt 0.693801 0.896902
vt 0.889520 0.769557
vt 0.807528 0.689716
vt 0.676752 0.880300
vt 0.894224 0.792584
vt 0.663357 0.860779
vt 0.894224 0.816062
vt 0.654131 0.839088
vt 0.889520 0.839088
vt 0.649427 0.816062
vt 0.880293 0.860779
vt 0.649427 0.792584
vt 0.866898 0.880300
vt 0.654131 0.769557
vt 0.849850 0.896901
vt 0.663357 0.747867
vt 0.829803 0.909945
vt 0.676752 0.728346
vt 0.807528 0.918930
vt 0.693801 0.711744
vt 0.709650 0.508657
vt 0.691573 0.530106
vt 0.701851 0.540115
vt 0.721737 0.516521
vt 0.617146 0.291190
vt 0.588787 0.288470
vt 0.588787 0.274316
vt 0.619982 0.277307
vt 0.691573 0.329928
vt 0.709650 0.351378
vt 0.721737 0.343514
vt 0.701851 0.319920
vt 0.734148 0.430017
vt 0.731355 0.402403
vt 0.745612 0.399641
vt 0.748684 0.430017
vt 0.723083 0.484185
vt 0.736513 0.489602
vt 0.644415 0.299245
vt 0.649977 0.286168
vt 0.669546 0.312325
vt 0.677621 0.300556
vt 0.731355 0.457632
vt 0.745612 0.460393
vt 0.731355 0.457632
vt 0.745612 0.460393
vt 0.669545 0.312325
vt 0.677621 0.300556
vt 0.644415 0.299245
vt 0.649977 0.286168
vt 0.723083 0.484185
vt 0.736513 0.489602
vt 0.734148 0.430017
vt 0.748684 0.430017
vt 0.691573 0.329928
vt 0.701851 0.319920
vt 0.617146 0.291190
vt 0.619982 0.277307
vt 0.709650 0.508657
vt 0.721737 0.516520
vt 0.731355 0.402403
vt 0.745612 0.399641
vt 0.709650 0.351378
vt 0.721737 0.343514
vt 0.691573 0.530106
vt 0.701851 0.540115
vt 0.723083 0.375850
vt 0.736513 0.370433
vt 0.723083 0.375850
vt 0.736513 0.370433
vt 0.669545 0.547709
vt 0.677621 0.559478
vt 0.669545 0.547709
vt 0.677621 0.559478
vt 0.036955 0.338821
vt 0.036955 0.308298
vt 0.027383 0.308298
vt 0.027383 0.338821
vt 0.036955 0.247252
vt 0.036955 0.277775
vt 0.027383 0.277775
vt 0.027383 0.247252
vt 0.036955 0.369344
vt 0.027383 0.369344
vt 0.036955 0.216729
vt 0.027383 0.216729
vt 0.036955 0.399867
vt 0.027383 0.399867
vt 0.036955 0.186207
vt 0.027383 0.186207
vt 0.036955 0.430389
vt 0.027383 0.430389
vt 0.036955 0.155684
vt 0.027383 0.155684
vt 0.036955 0.552481
vt 0.036955 0.583004
vt 0.027383 0.583004
vt 0.027383 0.552481
vt 0.036955 0.460912
vt 0.027383 0.460912
vt 0.036955 0.521958
vt 0.027383 0.534907
vt 0.027383 0.521958
vt 0.036955 0.491435
vt 0.027383 0.491435
vt 0.036955 0.491435
vt 0.027383 0.491435
vt 0.036955 0.521958
vt 0.027383 0.521958
vt 0.036955 0.460912
vt 0.027383 0.460912
vt 0.036955 0.552481
vt 0.027383 0.552481
vt 0.036955 0.430389
vt 0.027383 0.430389
vt 0.036955 0.186207
vt 0.036955 0.155684
vt 0.027383 0.155684
vt 0.027383 0.186207
vt 0.036955 0.399867
vt 0.027383 0.399867
vt 0.036955 0.216729
vt 0.027383 0.216729
vt 0.036955 0.369344
vt 0.027383 0.369344
vt 0.036955 0.247252
vt 0.027383 0.247252
vt 0.036955 0.338821
vt 0.027383 0.338821
vt 0.036955 0.277775
vt 0.027383 0.277775
vt 0.036955 0.308298
vt 0.027383 0.308298
vt 0.637539 0.736457
vt 0.627530 0.765382
vt 0.631331 0.766236
vt 0.641096 0.738017
vt 0.717667 0.942365
vt 0.719268 0.938902
vt 0.726672 0.654800
vt 0.756931 0.646834
vt 0.757575 0.650580
vt 0.728054 0.658351
vt 0.653151 0.709989
vt 0.656327 0.712195
vt 0.698591 0.668361
vt 0.710504 0.662608
vt 0.711174 0.666503
vt 0.700658 0.671582
vt 0.673766 0.686996
vt 0.676438 0.689762
vt 0.600549 0.472132
vt 0.597551 0.442497
vt 0.600484 0.442497
vt 0.603482 0.472132
vt 0.673766 0.686996
vt 0.676438 0.689762
vt 0.698591 0.668361
vt 0.700658 0.671582
vt 0.653151 0.709989
vt 0.656327 0.712195
vt 0.726672 0.654800
vt 0.728054 0.658351
vt 0.589414 0.407393
vt 0.589760 0.405307
vt 0.592693 0.405307
vt 0.592347 0.407393
vt 0.637539 0.736457
vt 0.641096 0.738017
vt 0.717667 0.942365
vt 0.719268 0.938902
vt 0.627530 0.765382
vt 0.631331 0.766236
vt 0.690486 0.927163
vt 0.692750 0.924071
vt 0.623509 0.795653
vt 0.627407 0.795768
vt 0.666873 0.907089
vt 0.669714 0.904487
vt 0.625629 0.826106
vt 0.629475 0.825478
vt 0.647736 0.882915
vt 0.651043 0.880903
vt 0.633809 0.855571
vt 0.637456 0.854225
vt 0.633809 0.855571
vt 0.637456 0.854225
vt 0.647736 0.882915
vt 0.651043 0.880903
vt 0.625629 0.826106
vt 0.629475 0.825478
vt 0.666873 0.907089
vt 0.669714 0.904487
vt 0.623509 0.795653
vt 0.627407 0.795768
vt 0.690486 0.927163
vt 0.692750 0.924071
vt 0.029506 0.063663
vt 0.027406 0.094392
vt 0.023527 0.094141
vt 0.025628 0.063411
vt 0.002668 0.463238
vt 0.003026 0.494110
vt 0.002311 0.494122
vt 0.001953 0.463241
vt 0.026157 0.863142
vt 0.028044 0.893884
vt 0.024164 0.894110
vt 0.022277 0.863368
vt 0.031607 0.032934
vt 0.027728 0.032682
vt 0.006092 0.432476
vt 0.002824 0.436113
vt 0.002118 0.434900
vt 0.024270 0.832400
vt 0.020390 0.832625
vt 0.033708 0.002205
vt 0.029829 0.001953
vt 0.007586 0.401724
vt 0.002211 0.432309
vt 0.003704 0.401535
vt 0.022385 0.801657
vt 0.018505 0.801883
vt 0.009253 0.370979
vt 0.005372 0.370771
vt 0.020503 0.770915
vt 0.016623 0.771140
vt 0.011057 0.340240
vt 0.007177 0.340017
vt 0.018628 0.740173
vt 0.014747 0.740396
vt 0.012965 0.309504
vt 0.009085 0.309271
vt 0.016765 0.709430
vt 0.012884 0.709652
vt 0.014946 0.278771
vt 0.011067 0.278530
vt 0.014923 0.678687
vt 0.011042 0.678905
vt 0.016977 0.248039
vt 0.013098 0.247794
vt 0.013116 0.647942
vt 0.009235 0.648156
vt 0.019039 0.217309
vt 0.015161 0.217061
vt 0.011364 0.617197
vt 0.007483 0.617402
vt 0.021120 0.186580
vt 0.017241 0.186330
vt 0.009692 0.586448
vt 0.005810 0.586642
vt 0.023211 0.155850
vt 0.019332 0.155600
vt 0.031820 0.955369
vt 0.033708 0.986111
vt 0.029828 0.986337
vt 0.027940 0.955594
vt 0.025307 0.125121
vt 0.021428 0.124870
vt 0.029932 0.924626
vt 0.030657 0.936427
vt 0.026052 0.924852
vt 0.003813 0.524975
vt 0.003098 0.524996
vt 0.795368 0.574719
vt 0.775968 0.551700
vt 0.778270 0.550202
vt 0.797326 0.572812
vt 0.875241 0.318322
vt 0.845977 0.326966
vt 0.847036 0.329456
vt 0.875781 0.320966
vt 0.819007 0.593610
vt 0.820545 0.591368
vt 0.905674 0.315403
vt 0.905674 0.318099
vt 0.845977 0.607647
vt 0.847036 0.605157
vt 0.875241 0.318322
vt 0.875781 0.320966
vt 0.875241 0.616291
vt 0.875781 0.613647
vt 0.845977 0.326966
vt 0.847036 0.329456
vt 0.905674 0.619210
vt 0.905674 0.616514
vt 0.819007 0.341003
vt 0.820545 0.343245
vt 0.875241 0.616291
vt 0.875781 0.613647
vt 0.795368 0.359894
vt 0.797326 0.361801
vt 0.845977 0.607647
vt 0.847036 0.605157
vt 0.775968 0.382913
vt 0.778270 0.384411
vt 0.819007 0.593610
vt 0.820545 0.591368
vt 0.761552 0.409175
vt 0.764110 0.410207
vt 0.752675 0.437672
vt 0.749678 0.467306
vt 0.752446 0.467306
vt 0.755391 0.438197
vt 0.795368 0.574719
vt 0.797326 0.572812
vt 0.752675 0.437672
vt 0.755391 0.438197
vt 0.761552 0.409175
vt 0.764110 0.410207
vt 0.775968 0.551700
vt 0.778270 0.550202
vt 0.749678 0.467306
vt 0.752446 0.467306
vt 0.775968 0.382913
vt 0.778270 0.384411
vt 0.761552 0.525438
vt 0.764110 0.524406
vt 0.752675 0.496941
vt 0.755391 0.496415
vt 0.795368 0.359894
vt 0.797326 0.361801
vt 0.752675 0.496941
vt 0.755391 0.496415
vt 0.761552 0.525437
vt 0.760813 0.523063
vt 0.764110 0.524406
vt 0.819007 0.341003
vt 0.820545 0.343245
vt 0.909590 0.704070
vt 0.909590 0.673543
vt 0.928356 0.673543
vt 0.928356 0.704070
vt 0.909590 0.307221
vt 0.909590 0.276694
vt 0.928356 0.276694
vt 0.928356 0.307221
vt 0.909590 0.734596
vt 0.928356 0.734596
vt 0.909590 0.337748
vt 0.928356 0.337748
vt 0.909590 0.765123
vt 0.928356 0.765123
vt 0.909590 0.368275
vt 0.928356 0.368275
vt 0.909590 0.795650
vt 0.928356 0.795650
vt 0.909590 0.398802
vt 0.928356 0.398802
vt 0.909590 0.826177
vt 0.928356 0.826177
vt 0.909590 0.429328
vt 0.928356 0.429328
vt 0.909590 0.032480
vt 0.909590 0.001953
vt 0.928356 0.001953
vt 0.928356 0.032480
vt 0.909590 0.856704
vt 0.928356 0.856704
vt 0.909590 0.459855
vt 0.928356 0.459855
vt 0.909590 0.063007
vt 0.928356 0.063007
vt 0.909590 0.887230
vt 0.928356 0.887230
vt 0.909590 0.490382
vt 0.928356 0.490382
vt 0.909590 0.093534
vt 0.928356 0.093534
vt 0.909590 0.917757
vt 0.928356 0.917757
vt 0.909590 0.520909
vt 0.928356 0.520909
vt 0.909590 0.124060
vt 0.928356 0.124060
vt 0.909590 0.948284
vt 0.928356 0.948284
vt 0.909590 0.551436
vt 0.928356 0.551436
vt 0.909590 0.154587
vt 0.928356 0.154587
vt 0.909590 0.978811
vt 0.928356 0.978811
vt 0.909590 0.581962
vt 0.928356 0.581962
vt 0.909590 0.185114
vt 0.928356 0.185114
vt 0.909590 0.612489
vt 0.928356 0.612489
vt 0.909590 0.215641
vt 0.928356 0.215641
vt 0.909590 0.643016
vt 0.928356 0.643016
vt 0.909590 0.246168
vt 0.928356 0.246168
vt 0.008131 0.555696
vt 0.004247 0.555875
vt 0.597551 0.380298
vt 0.600484 0.380298
vt 0.644415 0.560790
vt 0.617146 0.568844
vt 0.619221 0.579002
vt 0.648485 0.570358
vt 0.649977 0.573867
vt 0.588787 0.571564
vt 0.588787 0.581921
vt 0.617146 0.568844
vt 0.619221 0.579002
vt 0.644415 0.560790
vt 0.648485 0.570358
vt 0.649977 0.573867
vt 0.015964 0.432491
vt 0.015057 0.436255
vt 0.013171 0.435057
vt 0.018006 0.555379
vt 0.017069 0.555014
vt 0.016240 0.524690
vt 0.017166 0.524668
vt 0.004947 0.555453
vt 0.009136 0.555268
vt 0.953621 0.338375
vt 0.960456 0.441610
vt 0.953603 0.437213
vt 0.015609 0.493959
vt 0.016536 0.493944
vt 0.015200 0.463224
vt 0.016127 0.463215
vt 0.597551 0.501767
vt 0.600484 0.501767
vt 0.600549 0.350663
vt 0.603482 0.350663
vt 0.589760 0.417488
vt 0.592693 0.417488
vt 0.588787 0.529900
vt 0.595401 0.518084
vt 0.591720 0.529900
vt 0.597551 0.321028
vt 0.600484 0.321028
vt 0.998021 0.113136
vt 0.998028 0.225754
vt 0.975821 0.225756
vt 0.975815 0.113137
vt 0.953615 0.225757
vt 0.953609 0.113138
vt 0.998034 0.338373
vt 0.975828 0.338375
vt 0.998047 0.437210
vt 0.991193 0.441607
vt 0.975825 0.443931
vt 0.589414 0.415402
vt 0.592347 0.415402
vt 0.589414 0.411397
vt 0.592347 0.411397
vt 0.008971 0.434437
vt 0.004727 0.434988
vt 0.975812 0.048651
vt 0.994364 0.048650
vt 0.957260 0.048652
vt 0.953605 0.048652
vt 0.588787 0.292895
vt 0.595401 0.304711
vt 0.998018 0.048650
vt 0.591720 0.530778
vt 0.591720 0.535617
vt 0.588787 0.533848
vt 0.591720 0.540457
vt 0.588787 0.541335
vt 0.591720 0.541335
vt 0.001953 0.046442
vt 0.009805 0.046442
vt 0.953603 0.001955
vt 0.957014 0.006583
vt 0.591720 0.292895
vt 0.994605 0.006581
vt 0.998015 0.001953
vt 0.975809 0.006582
vt 0.975809 0.001954
vt 0.994604 0.001953
vt 0.957014 0.001955
vt 0.612164 0.033152
vt 0.598439 0.033228
vt 0.598079 0.002106
vt 0.611984 0.002029
vt 0.625889 0.033077
vt 0.625889 0.001953
vt 0.001953 0.104471
vt 0.009805 0.104471
vt 0.001953 0.118011
vt 0.009805 0.118011
vt 0.929815 0.795650
vt 0.929815 0.826177
vt 0.929815 0.398802
vt 0.929815 0.429328
vt 0.929815 0.001953
vt 0.929815 0.032480
vt 0.929815 0.856704
vt 0.929815 0.459855
vt 0.929815 0.063007
vt 0.929815 0.887230
vt 0.929815 0.490382
vt 0.929815 0.093534
vt 0.929815 0.917757
vt 0.929815 0.520909
vt 0.929815 0.124060
vt 0.929815 0.948284
vt 0.929815 0.551436
vt 0.929815 0.154587
vt 0.929815 0.978811
vt 0.929815 0.581962
vt 0.929815 0.185114
vt 0.929815 0.612489
vt 0.929815 0.215641
vt 0.929815 0.643016
vt 0.929815 0.246168
vt 0.929815 0.673543
vt 0.929815 0.276694
vt 0.929815 0.704070
vt 0.929815 0.307221
vt 0.929815 0.734596
vt 0.929815 0.337748
vt 0.929815 0.765123
vt 0.929815 0.368275
vt 0.937816 0.093534
vt 0.937816 0.124060
vt 0.937816 0.917757
vt 0.937816 0.948284
vt 0.937816 0.520909
vt 0.937816 0.551436
vt 0.937816 0.154587
vt 0.937816 0.978811
vt 0.937816 0.581962
vt 0.937816 0.185114
vt 0.937816 0.612489
vt 0.937816 0.215641
vt 0.937816 0.643016
vt 0.937816 0.246168
vt 0.937816 0.673543
vt 0.937816 0.276694
vt 0.937816 0.704070
vt 0.937816 0.307221
vt 0.937816 0.734596
vt 0.937816 0.337748
vt 0.937816 0.765123
vt 0.937816 0.368275
vt 0.937816 0.795650
vt 0.937816 0.398802
vt 0.937816 0.826177
vt 0.937816 0.429328
vt 0.937816 0.001953
vt 0.937816 0.032480
vt 0.937816 0.856704
vt 0.937816 0.459855
vt 0.937816 0.063007
vt 0.937816 0.887230
vt 0.937816 0.490382
vt 0.949693 0.185114
vt 0.949693 0.215641
vt 0.949693 0.612489
vt 0.949693 0.643016
vt 0.949693 0.246168
vt 0.949693 0.673543
vt 0.949693 0.276694
vt 0.949693 0.704070
vt 0.949693 0.307221
vt 0.949693 0.734596
vt 0.949693 0.337748
vt 0.949693 0.765123
vt 0.949693 0.368275
vt 0.949693 0.795650
vt 0.949693 0.398802
vt 0.949693 0.826177
vt 0.949693 0.429328
vt 0.949693 0.001953
vt 0.949693 0.032480
vt 0.949693 0.856704
vt 0.949693 0.459855
vt 0.949693 0.063007
vt 0.949693 0.887230
vt 0.949693 0.490382
vt 0.949693 0.093534
vt 0.949693 0.917757
vt 0.949693 0.520909
vt 0.949693 0.124060
vt 0.949693 0.948284
vt 0.949693 0.551436
vt 0.949693 0.154587
vt 0.949693 0.978811
vt 0.949693 0.581962
vt 0.589765 0.170911
vt 0.589765 0.140613
vt 0.747719 0.155762
vt 0.899602 0.200626
vt 0.887695 0.228618
vt 0.595836 0.200627
vt 0.905672 0.170911
vt 0.607742 0.228618
vt 0.905672 0.140613
vt 0.625028 0.253810
vt 0.899602 0.110898
vt 0.647029 0.275233
vt 0.763275 0.001953
vt 0.793792 0.007864
vt 0.887695 0.082906
vt 0.672900 0.292066
vt 0.732161 0.001953
vt 0.870409 0.057714
vt 0.701645 0.303660
vt 0.701645 0.007864
vt 0.848408 0.036291
vt 0.732162 0.309571
vt 0.672900 0.019458
vt 0.822537 0.019458
vt 0.763276 0.309571
vt 0.647029 0.036291
vt 0.793792 0.303660
vt 0.625028 0.057715
vt 0.822537 0.292066
vt 0.607742 0.082906
vt 0.848408 0.275233
vt 0.595836 0.110898
vt 0.870409 0.253810
vn 0.9239 0.0000 0.3827
vn -0.9239 0.0000 0.3827
vn 0.0054 -1.0000 -0.0016
vn 0.0054 1.0000 -0.0016
vn -0.1940 -0.1073 -0.9751
vn -0.1951 -0.0198 -0.9806
vn -0.0000 -0.0198 -0.9998
vn -0.0000 -0.1073 -0.9942
vn -0.3805 -0.1073 -0.9185
vn -0.3826 -0.0198 -0.9237
vn -0.5524 -0.1073 -0.8267
vn -0.5555 -0.0198 -0.8313
vn -0.7030 -0.1073 -0.7030
vn -0.7070 -0.0198 -0.7070
vn -0.8267 -0.1073 -0.5524
vn -0.8313 -0.0198 -0.5555
vn -0.9185 -0.1073 -0.3805
vn -0.9237 -0.0198 -0.3826
vn -0.9751 -0.1073 -0.1940
vn -0.9806 -0.0198 -0.1951
vn -0.9942 -0.1073 0.0000
vn -0.9998 -0.0198 0.0000
vn -0.9751 -0.1073 0.1940
vn -0.9806 -0.0198 0.1951
vn -0.9185 -0.1073 0.3805
vn -0.9237 -0.0198 0.3826
vn -0.8267 -0.1073 0.5524
vn -0.8313 -0.0198 0.5555
vn -0.7030 -0.1073 0.7030
vn -0.7070 -0.0198 0.7070
vn -0.5524 -0.1073 0.8267
vn -0.5555 -0.0198 0.8313
vn -0.3805 -0.1073 0.9185
vn -0.3826 -0.0198 0.9237
vn -0.1940 -0.1073 0.9751
vn -0.1951 -0.0198 0.9806
vn -0.0000 -0.1073 0.9942
vn -0.0000 -0.0198 0.9998
vn 0.1940 -0.1073 0.9751
vn 0.1951 -0.0198 0.9806
vn 0.3805 -0.1073 0.9185
vn 0.3826 -0.0198 0.9237
vn 0.5524 -0.1073 0.8267
vn 0.5555 -0.0198 0.8313
vn 0.7030 -0.1073 0.7030
vn 0.7070 -0.0198 0.7070
vn 0.8267 -0.1073 0.5524
vn 0.8313 -0.0198 0.5555
vn 0.9185 -0.1073 0.3805
vn 0.9237 -0.0198 0.3826
vn 0.9751 -0.1073 0.1940
vn 0.9806 -0.0198 0.1951
vn 0.9942 -0.1073 0.0000
vn 0.9998 -0.0198 0.0000
vn 0.9751 -0.1073 -0.1940
vn 0.9806 -0.0198 -0.1951
vn 0.9185 -0.1073 -0.3805
vn 0.9237 -0.0198 -0.3826
vn 0.8267 -0.1073 -0.5524
vn 0.8313 -0.0198 -0.5555
vn 0.7030 -0.1073 -0.7030
vn 0.7070 -0.0198 -0.7070
vn 0.5524 -0.1073 -0.8267
vn 0.5555 -0.0198 -0.8313
vn 0.3805 -0.1073 -0.9185
vn 0.3826 -0.0198 -0.9237
vn 0.1940 -0.1073 -0.9751
vn 0.1951 -0.0198 -0.9806
vn 0.0000 -0.4999 -0.8661
vn -0.0000 -0.2460 -0.9693
vn 0.1891 -0.2460 -0.9506
vn 0.1690 -0.4999 -0.8494
vn 0.3709 -0.2460 -0.8955
vn 0.3314 -0.4999 -0.8002
vn 0.5385 -0.2460 -0.8059
vn 0.4812 -0.4999 -0.7201
vn 0.6854 -0.2460 -0.6854
vn 0.6124 -0.4999 -0.6124
vn 0.8059 -0.2460 -0.5385
vn 0.7201 -0.4999 -0.4812
vn 0.8955 -0.2460 -0.3709
vn 0.8002 -0.4999 -0.3314
vn 0.9506 -0.2460 -0.1891
vn 0.8494 -0.4999 -0.1690
vn 0.9693 -0.2460 0.0000
vn 0.8661 -0.4999 0.0000
vn 0.9506 -0.2460 0.1891
vn 0.8494 -0.4999 0.1690
vn 0.8955 -0.2460 0.3709
vn 0.8002 -0.4999 0.3314
vn 0.8059 -0.2460 0.5385
vn 0.7201 -0.4999 0.4812
vn 0.6854 -0.2460 0.6854
vn 0.6124 -0.4999 0.6124
vn 0.5385 -0.2460 0.8059
vn 0.4812 -0.4999 0.7201
vn 0.3709 -0.2460 0.8955
vn 0.3314 -0.4999 0.8002
vn 0.1891 -0.2460 0.9506
vn 0.1690 -0.4999 0.8494
vn -0.0000 -0.2460 0.9693
vn -0.0000 -0.4999 0.8661
vn -0.1891 -0.2460 0.9506
vn -0.1690 -0.4999 0.8494
vn -0.3709 -0.2460 0.8955
vn -0.3314 -0.4999 0.8002
vn -0.5385 -0.2460 0.8059
vn -0.4812 -0.4999 0.7201
vn -0.6854 -0.2460 0.6854
vn -0.6124 -0.4999 0.6124
vn -0.8059 -0.2460 0.5385
vn -0.7201 -0.4999 0.4812
vn -0.8955 -0.2460 0.3709
vn -0.8002 -0.4999 0.3314
vn -0.9506 -0.2460 0.1891
vn -0.8494 -0.4999 0.1690
vn -0.9693 -0.2460 0.0000
vn -0.8661 -0.4999 -0.0000
vn -0.9506 -0.2460 -0.1891
vn -0.8494 -0.4999 -0.1690
vn -0.8955 -0.2460 -0.3709
vn -0.8002 -0.4999 -0.3314
vn -0.8059 -0.2460 -0.5385
vn -0.7201 -0.4999 -0.4812
vn -0.6854 -0.2460 -0.6854
vn -0.6124 -0.4999 -0.6124
vn -0.5385 -0.2460 -0.8059
vn -0.4812 -0.4999 -0.7201
vn -0.3709 -0.2460 -0.8955
vn -0.3314 -0.4999 -0.8002
vn -0.1891 -0.2460 -0.9506
vn -0.1690 -0.4999 -0.8494
vn -0.9237 0.0198 -0.3826
vn -0.8313 0.0198 -0.5555
vn -0.9237 0.0198 0.3826
vn -0.9806 0.0198 0.1951
vn -0.9806 0.0198 -0.1951
vn -0.9998 0.0198 -0.0000
vn -0.8313 0.0198 0.5555
vn -0.1951 0.0198 0.9806
vn -0.3826 0.0198 0.9237
vn -0.5555 0.0198 0.8313
vn -0.0000 0.0198 0.9998
vn 0.3826 0.0198 0.9237
vn 0.1951 0.0198 0.9806
vn 0.9237 0.0198 -0.3826
vn 0.9806 0.0198 -0.1951
vn 0.5555 0.0198 0.8313
vn 0.7070 0.0198 0.7070
vn 0.8313 0.0198 0.5555
vn 0.9237 0.0198 0.3826
vn 0.9806 0.0198 0.1951
vn 0.9998 0.0198 0.0000
vn -0.1951 0.0198 -0.9806
vn -0.0000 0.0198 -0.9998
vn 0.8313 0.0198 -0.5555
vn 0.7070 0.0198 -0.7070
vn 0.1951 0.0198 -0.9806
vn 0.3826 0.0198 -0.9237
vn -0.1940 0.1073 -0.9751
vn -0.0000 0.1073 -0.9942
vn -0.3805 0.1073 -0.9185
vn -0.3826 0.0198 -0.9237
vn -0.5524 0.1073 -0.8267
vn -0.5555 0.0198 -0.8313
vn -0.7030 0.1073 -0.7030
vn -0.7070 0.0198 -0.7070
vn -0.8267 0.1073 -0.5524
vn -0.9185 0.1073 -0.3805
vn -0.9751 0.1073 -0.1940
vn -0.9942 0.1073 -0.0000
vn -0.9751 0.1073 0.1940
vn -0.9185 0.1073 0.3805
vn -0.8267 0.1073 0.5524
vn -0.7030 0.1073 0.7030
vn -0.7070 0.0198 0.7070
vn -0.5524 0.1073 0.8267
vn -0.3805 0.1073 0.9185
vn -0.1940 0.1073 0.9751
vn -0.0000 0.1073 0.9942
vn 0.1940 0.1073 0.9751
vn 0.3805 0.1073 0.9185
vn 0.5524 0.1073 0.8267
vn 0.7030 0.1073 0.7030
vn 0.8267 0.1073 0.5524
vn 0.9185 0.1073 0.3805
vn 0.9751 0.1073 0.1940
vn 0.9942 0.1073 0.0000
vn 0.9751 0.1073 -0.1940
vn 0.9185 0.1073 -0.3805
vn 0.8267 0.1073 -0.5524
vn 0.7030 0.1073 -0.7030
vn 0.5524 0.1073 -0.8267
vn 0.5555 0.0198 -0.8313
vn 0.3805 0.1073 -0.9185
vn 0.1940 0.1073 -0.9751
vn 0.0000 0.3175 -0.9483
vn 0.1850 0.3175 -0.9300
vn 0.1891 0.2460 -0.9506
vn 0.0000 0.2460 -0.9693
vn 0.3629 0.3175 -0.8761
vn 0.3709 0.2460 -0.8955
vn 0.5268 0.3175 -0.7885
vn 0.5385 0.2460 -0.8059
vn 0.6705 0.3175 -0.6705
vn 0.6854 0.2460 -0.6854
vn 0.7885 0.3175 -0.5268
vn 0.8059 0.2460 -0.5385
vn 0.8761 0.3175 -0.3629
vn 0.8955 0.2460 -0.3709
vn 0.9300 0.3175 -0.1850
vn 0.9506 0.2460 -0.1891
vn 0.9483 0.3175 0.0000
vn 0.9693 0.2460 0.0000
vn 0.9300 0.3175 0.1850
vn 0.9506 0.2460 0.1891
vn 0.8761 0.3175 0.3629
vn 0.8955 0.2460 0.3709
vn 0.7885 0.3175 0.5268
vn 0.8059 0.2460 0.5385
vn 0.6705 0.3175 0.6705
vn 0.6854 0.2460 0.6854
vn 0.5268 0.3175 0.7885
vn 0.5385 0.2460 0.8059
vn 0.3629 0.3175 0.8761
vn 0.3709 0.2460 0.8955
vn 0.1850 0.3175 0.9300
vn 0.1891 0.2460 0.9506
vn -0.0000 0.3175 0.9483
vn -0.0000 0.2460 0.9693
vn -0.1850 0.3175 0.9300
vn -0.1891 0.2460 0.9506
vn -0.3629 0.3175 0.8761
vn -0.3709 0.2460 0.8955
vn -0.5268 0.3175 0.7885
vn -0.5385 0.2460 0.8059
vn -0.6705 0.3175 0.6705
vn -0.6854 0.2460 0.6854
vn -0.7885 0.3175 0.5268
vn -0.8059 0.2460 0.5385
vn -0.8761 0.3175 0.3629
vn -0.8955 0.2460 0.3709
vn -0.9300 0.3175 0.1850
vn -0.9506 0.2460 0.1891
vn -0.9483 0.3175 -0.0000
vn -0.9693 0.2460 -0.0000
vn -0.9300 0.3175 -0.1850
vn -0.9506 0.2460 -0.1891
vn -0.8761 0.3175 -0.3629
vn -0.8955 0.2460 -0.3709
vn -0.7885 0.3175 -0.5268
vn -0.8059 0.2460 -0.5385
vn -0.6705 0.3175 -0.6705
vn -0.6854 0.2460 -0.6854
vn -0.5268 0.3175 -0.7885
vn -0.5385 0.2460 -0.8059
vn -0.3629 0.3175 -0.8761
vn -0.3709 0.2460 -0.8955
vn -0.1850 0.3175 -0.9301
vn -0.1891 0.2460 -0.9506
vn -0.4176 -0.9048 0.0831
vn -0.3934 -0.9048 0.1630
vn 0.2366 -0.9048 -0.3541
vn 0.1630 -0.9048 -0.3934
vn -0.1630 -0.9048 -0.3934
vn -0.2366 -0.9048 -0.3541
vn 0.3934 -0.9048 0.1630
vn 0.4176 -0.9048 0.0831
vn -0.0831 -0.9048 0.4176
vn -0.0000 -0.9048 0.4258
vn -0.4258 -0.9048 -0.0000
vn 0.3011 -0.9048 -0.3011
vn -0.0831 -0.9048 -0.4176
vn 0.3541 -0.9048 0.2366
vn -0.1630 -0.9048 0.3934
vn -0.4176 -0.9048 -0.0831
vn 0.3541 -0.9048 -0.2366
vn 0.0000 -0.9048 -0.4258
vn 0.3011 -0.9048 0.3011
vn -0.2366 -0.9048 0.3541
vn -0.3934 -0.9048 -0.1630
vn 0.3934 -0.9048 -0.1630
vn 0.2366 -0.9048 0.3541
vn -0.3011 -0.9048 0.3011
vn -0.3541 -0.9048 -0.2366
vn 0.4176 -0.9048 -0.0831
vn 0.1630 -0.9048 0.3934
vn -0.3541 -0.9048 0.2366
vn 0.0831 -0.9048 -0.4176
vn -0.3011 -0.9048 -0.3011
vn 0.4258 -0.9048 0.0000
vn 0.0831 -0.9048 0.4176
vn -0.0000 -1.0000 0.0000
vn -1.0000 -0.0000 0.0000
vn -0.9808 -0.0000 0.1951
vn 0.8315 0.0000 0.5556
vn -0.9808 0.0000 -0.1951
vn 0.7071 0.0000 0.7071
vn -0.9239 0.0000 -0.3827
vn 0.5556 0.0000 0.8315
vn -0.8315 -0.0000 -0.5556
vn 0.4714 0.0000 0.8819
vn 0.1951 -0.0000 -0.9808
vn 0.0000 0.0000 -1.0000
vn -0.7071 -0.0000 -0.7071
vn 0.3827 -0.0000 -0.9239
vn 0.2903 -0.0000 -0.9569
vn -0.5556 -0.0000 -0.8315
vn 0.5556 -0.0000 -0.8315
vn -0.3827 0.0000 -0.9239
vn 0.7071 -0.0000 -0.7071
vn -0.1951 0.0000 -0.9808
vn 0.8315 -0.0000 -0.5556
vn -0.5556 0.0000 0.8315
vn -0.4714 0.0000 0.8819
vn 0.9239 -0.0000 -0.3827
vn -0.7071 0.0000 0.7071
vn 0.9808 0.0000 -0.1951
vn -0.8315 0.0000 0.5556
vn 1.0000 -0.0000 0.0000
vn 0.9808 0.0000 0.1951
vn 0.0000 1.0000 0.0000
vn -0.9392 -0.3435 0.0000
vn -0.8460 -0.5332 0.0000
vn -0.9318 -0.3630 0.0000
vn -0.1951 -0.0000 0.9808
vn 0.0000 0.0000 1.0000
vn -0.3644 0.0134 0.9312
vn -0.2903 -0.0000 0.9569
vn -0.3827 0.0000 0.9239
vn 0.1951 -0.0000 0.9808
vn 0.3827 0.0000 0.9239
vn 0.3492 -0.0013 0.9370
vn -0.3142 -0.0189 0.9492
vn -0.3080 -0.0179 0.9512
vn 0.2903 0.0000 0.9569
vn -0.1938 -0.0092 0.9810
vn -0.2885 -0.0126 0.9574
vn -0.1938 0.0092 0.9810
vn -0.1937 0.0000 0.9811
vn -0.2885 0.0126 0.9574
vn -0.2876 0.0000 0.9577
vn -0.8460 0.5332 0.0000
vn -0.9392 0.3435 0.0000
vn -0.9318 0.3630 0.0000
vn -0.3275 -0.0013 0.9448
vn -0.2967 0.0137 0.9549
vn -0.3186 -0.0031 0.9479
vn -0.3113 -0.0033 0.9503
vn 0.3520 0.0034 0.9360
vn 0.9569 0.0000 -0.2903
vn -0.9569 0.0000 0.2903
vn -0.5724 0.7253 -0.3825
vn -0.6360 0.7253 -0.2634
vn -0.3605 0.9207 -0.1493
vn -0.3245 0.9207 -0.2168
vn 0.2634 0.7253 0.6360
vn 0.3825 0.7253 0.5724
vn 0.2168 0.9207 0.3245
vn 0.1493 0.9207 0.3605
vn 0.1343 0.7253 -0.6752
vn -0.0000 0.7253 -0.6884
vn 0.0000 0.9207 -0.3902
vn 0.0761 0.9207 -0.3827
vn -0.4868 0.7253 -0.4868
vn -0.2759 0.9207 -0.2759
vn 0.1343 0.7253 0.6752
vn 0.0761 0.9207 0.3827
vn 0.2634 0.7253 -0.6360
vn 0.1493 0.9207 -0.3605
vn -0.3824 0.7253 -0.5724
vn -0.2168 0.9207 -0.3245
vn 0.0000 0.7253 0.6884
vn 0.0000 0.9207 0.3902
vn 0.3824 0.7253 -0.5724
vn 0.2168 0.9207 -0.3245
vn -0.2634 0.7253 -0.6360
vn -0.1493 0.9207 -0.3605
vn -0.1343 0.7253 0.6752
vn -0.0761 0.9207 0.3827
vn 0.4868 0.7253 -0.4868
vn 0.2759 0.9207 -0.2759
vn -0.1343 0.7253 -0.6752
vn -0.0761 0.9207 -0.3827
vn -0.2634 0.7253 0.6360
vn -0.1493 0.9207 0.3605
vn 0.5724 0.7253 -0.3825
vn 0.3245 0.9207 -0.2168
vn -0.3825 0.7253 0.5724
vn -0.2168 0.9207 0.3245
vn 0.6360 0.7253 -0.2634
vn 0.3605 0.9207 -0.1493
vn -0.4868 0.7253 0.4868
vn -0.2759 0.9207 0.2759
vn 0.6752 0.7253 -0.1343
vn 0.3827 0.9207 -0.0761
vn -0.5724 0.7253 0.3824
vn -0.3245 0.9207 0.2168
vn 0.6884 0.7253 0.0000
vn 0.3902 0.9207 0.0000
vn -0.6360 0.7253 0.2634
vn -0.3605 0.9207 0.1493
vn 0.6752 0.7253 0.1343
vn 0.3827 0.9207 0.0761
vn -0.6752 0.7253 0.1343
vn -0.3827 0.9207 0.0761
vn 0.6360 0.7253 0.2634
vn 0.3605 0.9207 0.1493
vn -0.6884 0.7253 -0.0000
vn -0.3902 0.9207 -0.0000
vn 0.5724 0.7253 0.3824
vn 0.3245 0.9207 0.2168
vn -0.6752 0.7253 -0.1343
vn -0.3827 0.9207 -0.0761
vn 0.4868 0.7253 0.4868
vn 0.2759 0.9207 0.2759
usemtl Material
s off
f 365/1/1 333/2/1 475/3/1 479/4/1
f 304/5/2 332/6/2 361/7/2 486/8/2
f 521/9/3 513/10/3 523/11/3 522/12/3
f 517/13/4 520/14/4 526/15/4 527/16/4
s 1
f 128/17/5 64/18/6 33/19/7 97/20/8
f 127/21/9 63/22/10 64/18/6 128/17/5
f 126/23/11 62/24/12 63/22/10 127/21/9
f 125/25/13 61/26/14 62/24/12 126/23/11
f 124/27/15 60/28/16 61/26/14 125/25/13
f 123/29/17 59/30/18 60/28/16 124/27/15
f 122/31/19 58/32/20 59/30/18 123/29/17
f 121/33/21 57/34/22 58/32/20 122/31/19
f 120/35/23 56/36/24 57/34/22 121/33/21
f 119/37/25 55/38/26 56/36/24 120/35/23
f 118/39/27 54/40/28 55/38/26 119/37/25
f 117/41/29 53/42/30 54/40/28 118/39/27
f 116/43/31 52/44/32 53/42/30 117/41/29
f 115/45/33 51/46/34 52/44/32 116/43/31
f 114/47/35 50/48/36 51/46/34 115/45/33
f 113/49/37 49/50/38 50/48/36 114/47/35
f 112/51/39 48/52/40 49/50/38 113/49/37
f 111/53/41 47/54/42 48/52/40 112/51/39
f 110/55/43 46/56/44 47/54/42 111/53/41
f 109/57/45 45/58/46 46/56/44 110/55/43
f 108/59/47 44/60/48 45/58/46 109/57/45
f 107/61/49 43/62/50 44/60/48 108/59/47
f 106/63/51 42/64/52 43/62/50 107/61/49
f 105/65/53 41/66/54 42/64/52 106/63/51
f 104/67/55 40/68/56 41/66/54 105/65/53
f 103/69/57 39/70/58 40/68/56 104/67/55
f 102/71/59 38/72/60 39/70/58 103/69/57
f 101/73/61 37/74/62 38/72/60 102/71/59
f 100/75/63 36/76/64 37/74/62 101/73/61
f 99/77/65 35/78/66 36/76/64 100/75/63
f 98/79/67 34/80/68 35/78/66 99/77/65
f 97/81/8 33/82/7 34/80/68 98/79/67
f 1/83/69 96/84/70 65/85/71 2/86/72
f 2/86/72 65/85/71 66/87/73 3/88/74
f 3/88/74 66/87/73 67/89/75 4/90/76
f 4/90/76 67/89/75 68/91/77 5/92/78
f 5/92/78 68/91/77 69/93/79 6/94/80
f 6/94/80 69/93/79 70/95/81 7/96/82
f 7/96/82 70/95/81 71/97/83 8/98/84
f 8/98/84 71/97/83 72/99/85 9/100/86
f 9/100/86 72/99/85 73/101/87 10/102/88
f 10/102/88 73/101/87 74/103/89 11/104/90
f 11/104/90 74/103/89 75/105/91 12/106/92
f 12/106/92 75/105/91 76/107/93 13/108/94
f 13/108/94 76/107/93 77/109/95 14/110/96
f 14/110/96 77/109/95 78/111/97 15/112/98
f 15/112/98 78/111/97 79/113/99 16/114/100
f 16/114/100 79/113/99 80/115/101 17/116/102
f 17/116/102 80/115/101 81/117/103 18/118/104
f 18/118/104 81/117/103 82/119/105 19/120/106
f 19/120/106 82/119/105 83/121/107 20/122/108
f 20/122/108 83/121/107 84/123/109 21/124/110
f 21/124/110 84/123/109 85/125/111 22/126/112
f 22/126/112 85/125/111 86/127/113 23/128/114
f 23/128/114 86/127/113 87/129/115 24/130/116
f 24/130/116 87/129/115 88/131/117 25/132/118
f 25/132/118 88/131/117 89/133/119 26/134/120
f 26/134/120 89/133/119 90/135/121 27/136/122
f 27/136/122 90/135/121 91/137/123 28/138/124
f 28/138/124 91/137/123 92/139/125 29/140/126
f 29/140/126 92/139/125 93/141/127 30/142/128
f 30/142/128 93/141/127 94/143/129 31/144/130
f 31/144/130 94/143/129 95/145/131 32/146/132
f 32/146/132 95/145/131 96/147/70 1/148/69
f 96/84/70 97/81/8 98/79/67 65/85/71
f 65/85/71 98/79/67 99/77/65 66/87/73
f 66/87/73 99/77/65 100/75/63 67/89/75
f 67/89/75 100/75/63 101/73/61 68/91/77
f 68/91/77 101/73/61 102/71/59 69/93/79
f 69/93/79 102/71/59 103/69/57 70/95/81
f 70/95/81 103/69/57 104/67/55 71/97/83
f 71/97/83 104/67/55 105/65/53 72/99/85
f 72/99/85 105/65/53 106/63/51 73/101/87
f 73/101/87 106/63/51 107/61/49 74/103/89
f 74/103/89 107/61/49 108/59/47 75/105/91
f 75/105/91 108/59/47 109/57/45 76/107/93
f 76/107/93 109/57/45 110/55/43 77/109/95
f 77/109/95 110/55/43 111/53/41 78/111/97
f 78/111/97 111/53/41 112/51/39 79/113/99
f 79/113/99 112/51/39 113/49/37 80/115/101
f 80/115/101 113/49/37 114/47/35 81/117/103
f 81/117/103 114/47/35 115/45/33 82/119/105
f 82/119/105 115/45/33 116/43/31 83/121/107
f 83/121/107 116/43/31 117/41/29 84/123/109
f 84/123/109 117/41/29 118/39/27 85/125/111
f 85/125/111 118/39/27 119/37/25 86/127/113
f 86/127/113 119/37/25 120/35/23 87/129/115
f 87/129/115 120/35/23 121/33/21 88/131/117
f 88/131/117 121/33/21 122/31/19 89/133/119
f 89/133/119 122/31/19 123/29/17 90/135/121
f 90/135/121 123/29/17 124/27/15 91/137/123
f 91/137/123 124/27/15 125/25/13 92/139/125
f 92/139/125 125/25/13 126/23/11 93/141/127
f 93/141/127 126/23/11 127/21/9 94/143/129
f 94/143/129 127/21/9 128/17/5 95/145/131
f 95/145/131 128/17/5 97/20/8 96/147/70
f 187/149/133 188/150/134 60/28/16 59/30/18
f 183/151/135 184/152/136 56/36/24 55/38/26
f 186/153/137 187/149/133 59/30/18 58/32/20
f 185/154/138 186/153/137 58/32/20 57/34/22
f 184/152/136 185/154/138 57/34/22 56/36/24
f 182/155/139 183/151/135 55/38/26 54/40/28
f 178/156/140 179/157/141 51/46/34 50/48/36
f 179/157/141 180/158/142 52/44/32 51/46/34
f 177/159/143 178/156/140 50/48/36 49/50/38
f 175/160/144 176/161/145 48/52/40 47/54/42
f 176/161/145 177/159/143 49/50/38 48/52/40
f 167/162/146 168/163/147 40/68/56 39/70/58
f 174/164/148 175/160/144 47/54/42 46/56/44
f 173/165/149 174/164/148 46/56/44 45/58/46
f 172/166/150 173/165/149 45/58/46 44/60/48
f 171/167/151 172/166/150 44/60/48 43/62/50
f 170/168/152 171/167/151 43/62/50 42/64/52
f 169/169/153 170/168/152 42/64/52 41/66/54
f 168/163/147 169/169/153 41/66/54 40/68/56
f 64/18/6 192/170/154 161/171/155 33/19/7
f 166/172/156 167/162/146 39/70/58 38/72/60
f 165/173/157 166/172/156 38/72/60 37/74/62
f 162/174/158 163/175/159 35/78/66 34/80/68
f 161/176/155 162/174/158 34/80/68 33/82/7
f 256/177/160 225/178/161 161/171/155 192/170/154
f 255/179/162 256/177/160 192/170/154 191/180/163
f 254/181/164 255/179/162 191/180/163 190/182/165
f 253/183/166 254/181/164 190/182/165 189/184/167
f 252/185/168 253/183/166 189/184/167 188/150/134
f 251/186/169 252/185/168 188/150/134 187/149/133
f 250/187/170 251/186/169 187/149/133 186/153/137
f 249/188/171 250/187/170 186/153/137 185/154/138
f 248/189/172 249/188/171 185/154/138 184/152/136
f 247/190/173 248/189/172 184/152/136 183/151/135
f 246/191/174 247/190/173 183/151/135 182/155/139
f 245/192/175 246/191/174 182/155/139 181/193/176
f 244/194/177 245/192/175 181/193/176 180/158/142
f 243/195/178 244/194/177 180/158/142 179/157/141
f 242/196/179 243/195/178 179/157/141 178/156/140
f 241/197/180 242/196/179 178/156/140 177/159/143
f 240/198/181 241/197/180 177/159/143 176/161/145
f 239/199/182 240/198/181 176/161/145 175/160/144
f 238/200/183 239/199/182 175/160/144 174/164/148
f 237/201/184 238/200/183 174/164/148 173/165/149
f 236/202/185 237/201/184 173/165/149 172/166/150
f 235/203/186 236/202/185 172/166/150 171/167/151
f 234/204/187 235/203/186 171/167/151 170/168/152
f 233/205/188 234/204/187 170/168/152 169/169/153
f 232/206/189 233/205/188 169/169/153 168/163/147
f 231/207/190 232/206/189 168/163/147 167/162/146
f 230/208/191 231/207/190 167/162/146 166/172/156
f 229/209/192 230/208/191 166/172/156 165/173/157
f 228/210/193 229/209/192 165/173/157 164/211/194
f 227/212/195 228/210/193 164/211/194 163/175/159
f 226/213/196 227/212/195 163/175/159 162/174/158
f 225/214/161 226/213/196 162/174/158 161/176/155
f 129/215/197 130/216/198 193/217/199 224/218/200
f 130/216/198 131/219/201 194/220/202 193/217/199
f 131/219/201 132/221/203 195/222/204 194/220/202
f 132/221/203 133/223/205 196/224/206 195/222/204
f 133/223/205 134/225/207 197/226/208 196/224/206
f 134/225/207 135/227/209 198/228/210 197/226/208
f 135/227/209 136/229/211 199/230/212 198/228/210
f 136/229/211 137/231/213 200/232/214 199/230/212
f 137/231/213 138/233/215 201/234/216 200/232/214
f 138/233/215 139/235/217 202/236/218 201/234/216
f 139/235/217 140/237/219 203/238/220 202/236/218
f 140/237/219 141/239/221 204/240/222 203/238/220
f 141/239/221 142/241/223 205/242/224 204/240/222
f 142/241/223 143/243/225 206/244/226 205/242/224
f 143/243/225 144/245/227 207/246/228 206/244/226
f 144/245/227 145/247/229 208/248/230 207/246/228
f 145/247/229 146/249/231 209/250/232 208/248/230
f 146/249/231 147/251/233 210/252/234 209/250/232
f 147/251/233 148/253/235 211/254/236 210/252/234
f 148/253/235 149/255/237 212/256/238 211/254/236
f 149/255/237 150/257/239 213/258/240 212/256/238
f 150/257/239 151/259/241 214/260/242 213/258/240
f 151/259/241 152/261/243 215/262/244 214/260/242
f 152/261/243 153/263/245 216/264/246 215/262/244
f 153/263/245 154/265/247 217/266/248 216/264/246
f 154/265/247 155/267/249 218/268/250 217/266/248
f 155/267/249 156/269/251 219/270/252 218/268/250
f 156/269/251 157/271/253 220/272/254 219/270/252
f 157/271/253 158/273/255 221/274/256 220/272/254
f 158/273/255 159/275/257 222/276/258 221/274/256
f 159/275/257 160/277/259 223/278/260 222/276/258
f 160/277/259 129/279/197 224/280/200 223/278/260
f 224/218/200 193/217/199 226/213/196 225/214/161
f 193/217/199 194/220/202 227/212/195 226/213/196
f 194/220/202 195/222/204 228/210/193 227/212/195
f 195/222/204 196/224/206 229/209/192 228/210/193
f 196/224/206 197/226/208 230/208/191 229/209/192
f 197/226/208 198/228/210 231/207/190 230/208/191
f 198/228/210 199/230/212 232/206/189 231/207/190
f 199/230/212 200/232/214 233/205/188 232/206/189
f 200/232/214 201/234/216 234/204/187 233/205/188
f 201/234/216 202/236/218 235/203/186 234/204/187
f 202/236/218 203/238/220 236/202/185 235/203/186
f 203/238/220 204/240/222 237/201/184 236/202/185
f 204/240/222 205/242/224 238/200/183 237/201/184
f 205/242/224 206/244/226 239/199/182 238/200/183
f 206/244/226 207/246/228 240/198/181 239/199/182
f 207/246/228 208/248/230 241/197/180 240/198/181
f 208/248/230 209/250/232 242/196/179 241/197/180
f 209/250/232 210/252/234 243/195/178 242/196/179
f 210/252/234 211/254/236 244/194/177 243/195/178
f 211/254/236 212/256/238 245/192/175 244/194/177
f 212/256/238 213/258/240 246/191/174 245/192/175
f 213/258/240 214/260/242 247/190/173 246/191/174
f 214/260/242 215/262/244 248/189/172 247/190/173
f 215/262/244 216/264/246 249/188/171 248/189/172
f 216/264/246 217/266/248 250/187/170 249/188/171
f 217/266/248 218/268/250 251/186/169 250/187/170
f 218/268/250 219/270/252 252/185/168 251/186/169
f 219/270/252 220/272/254 253/183/166 252/185/168
f 220/272/254 221/274/256 254/181/164 253/183/166
f 221/274/256 222/276/258 255/179/162 254/181/164
f 222/276/258 223/278/260 256/177/160 255/179/162
f 223/278/260 224/280/200 225/178/161 256/177/160
f 63/22/10 191/180/163 192/170/154 64/18/6
f 62/24/12 190/182/165 191/180/163 63/22/10
f 53/42/30 181/193/176 182/155/139 54/40/28
f 52/44/32 180/158/142 181/193/176 53/42/30
f 36/76/64 164/211/194 165/173/157 37/74/62
f 35/78/66 163/175/159 164/211/194 36/76/64
f 189/184/167 190/182/165 62/24/12 61/26/14
f 188/150/134 189/184/167 61/26/14 60/28/16
f 23/128/114 24/130/116 280/281/261 279/282/262
f 3/88/74 4/90/76 260/283/263 259/284/264
f 30/142/128 31/144/130 287/285/265 286/286/266
f 10/102/88 11/104/90 267/287/267 266/288/268
f 17/116/102 18/118/104 274/289/269 273/290/270
f 24/130/116 25/132/118 281/291/271 280/281/261
f 4/90/76 5/92/78 261/292/272 260/283/263
f 31/144/130 32/146/132 288/293/273 287/285/265
f 11/104/90 12/106/92 268/294/274 267/287/267
f 18/118/104 19/120/106 275/295/275 274/289/269
f 25/132/118 26/134/120 282/296/276 281/291/271
f 5/92/78 6/94/80 262/297/277 261/292/272
f 32/146/132 1/148/69 257/298/278 288/293/273
f 12/106/92 13/108/94 269/299/279 268/294/274
f 19/120/106 20/122/108 276/300/280 275/295/275
f 26/134/120 27/136/122 283/301/281 282/296/276
f 6/94/80 7/96/82 263/302/282 262/297/277
f 13/108/94 14/110/96 270/303/283 269/299/279
f 20/122/108 21/124/110 277/304/284 276/300/280
f 27/136/122 28/138/124 284/305/285 283/301/281
f 7/96/82 8/98/84 264/306/286 263/302/282
f 14/110/96 15/112/98 271/307/287 270/303/283
f 21/124/110 22/126/112 278/308/288 277/304/284
f 1/83/69 2/86/72 258/309/289 257/310/278
f 28/138/124 29/140/126 285/311/290 284/305/285
f 8/98/84 9/100/86 265/312/291 264/306/286
f 15/112/98 16/114/100 272/313/292 271/307/287
f 22/126/112 23/128/114 279/282/262 278/308/288
f 2/86/72 3/88/74 259/284/264 258/309/289
f 29/140/126 30/142/128 286/286/266 285/311/290
f 9/100/86 10/102/88 266/288/268 265/312/291
f 16/114/100 17/116/102 273/290/270 272/313/292
f 271/314/287 272/315/292 289/316/293
f 258/317/289 259/318/264 289/316/293
f 285/319/290 286/320/266 289/316/293
f 272/315/292 273/321/270 289/316/293
f 259/318/264 260/322/263 289/316/293
f 286/320/266 287/323/265 289/316/293
f 273/321/270 274/324/269 289/316/293
f 260/322/263 261/325/272 289/316/293
f 287/323/265 288/326/273 289/316/293
f 274/324/269 275/327/275 289/316/293
f 261/325/272 262/328/277 289/316/293
f 288/326/273 257/329/278 289/316/293
f 275/327/275 276/330/280 289/316/293
f 262/328/277 263/331/282 289/316/293
f 276/330/280 277/332/284 289/316/293
f 263/331/282 264/333/286 289/316/293
f 277/332/284 278/334/288 289/316/293
f 264/333/286 265/335/291 289/316/293
f 278/334/288 279/336/262 289/316/293
f 265/335/291 266/337/268 289/316/293
f 279/336/262 280/338/261 289/316/293
f 266/337/268 267/339/267 289/316/293
f 280/338/261 281/340/271 289/316/293
f 267/339/267 268/341/274 289/316/293
f 281/340/271 282/342/276 289/316/293
f 268/341/274 269/343/279 289/316/293
f 282/342/276 283/344/281 289/316/293
f 269/343/279 270/345/283 289/316/293
f 283/344/281 284/346/285 289/316/293
f 270/345/283 271/314/287 289/316/293
f 257/329/278 258/317/289 289/316/293
f 284/346/285 285/319/290 289/316/293
f 150/347/293 149/348/293 306/349/293 307/350/293
f 130/351/293 129/352/293 290/353/293 291/354/293
f 157/355/293 156/356/293 313/357/293 314/358/293
f 137/359/293 136/360/293 297/361/293 298/362/293
f 151/363/293 150/347/293 307/350/293 308/364/293
f 131/365/293 130/351/293 291/354/293 292/366/293
f 158/367/293 157/355/293 314/358/293 315/368/293
f 138/369/293 137/359/293 298/362/293 299/370/293
f 152/371/293 151/363/293 308/364/293 309/372/293
f 132/373/293 131/365/293 292/366/293 293/374/293
f 159/375/293 158/367/293 315/368/293 316/376/293
f 139/377/293 138/369/293 299/370/293 300/378/293
f 153/379/293 152/371/293 309/372/293 310/380/293
f 133/381/293 132/373/293 293/374/293 294/382/293
f 160/383/293 159/375/293 316/376/293 317/384/293
f 140/385/293 139/377/293 300/378/293 301/386/293
f 154/387/293 153/379/293 310/380/293 311/388/293
f 134/389/293 133/381/293 294/382/293 295/390/293
f 129/352/293 160/383/293 317/384/293 290/353/293
f 141/391/293 140/385/293 301/386/293 302/392/293
f 155/393/293 154/387/293 311/388/293 312/394/293
f 135/395/293 134/389/293 295/390/293 296/396/293
f 142/397/293 141/391/293 302/392/293 303/398/293
f 149/348/293 148/399/293 305/400/293 306/349/293
f 156/356/293 155/393/293 312/394/293 313/357/293
f 136/360/293 135/395/293 296/396/293 297/361/293
f 310/401/294 309/402/295 338/403/295 339/404/294
f 301/405/296 300/406/1 328/407/1 329/408/296
f 311/409/297 310/401/294 339/404/294 340/410/297
f 302/411/298 301/405/296 329/408/296 330/412/298
f 312/413/299 311/409/297 340/410/297 341/414/299
f 303/415/300 302/411/298 330/412/298 331/416/300
f 313/417/301 312/413/299 341/414/299 342/418/301
f 304/419/302 303/415/300 331/416/300 332/420/302
f 291/421/303 290/422/304 318/423/304 319/424/303
f 314/425/305 313/417/301 342/418/301 343/426/305
f 292/427/306 291/421/303 319/424/303 514/428/307 320/429/306
f 315/430/308 314/425/305 343/426/305 344/431/308
f 293/432/309 292/427/306 320/429/306 321/433/309
f 316/434/310 315/430/308 344/431/308 345/435/310
f 294/436/311 293/432/309 321/433/309 322/437/311
f 317/438/312 316/434/310 345/435/310 346/439/312
f 295/440/313 294/436/311 322/437/311 323/441/313
f 290/422/304 317/438/312 346/439/312 318/423/304
f 305/442/314 475/443/315 333/444/315 334/445/314
f 296/446/316 295/440/313 323/441/313 324/447/316
f 306/448/317 305/442/314 334/445/314 335/449/317
f 297/450/318 296/446/316 324/447/316 325/451/318
f 307/452/319 306/448/317 335/449/317 336/453/319
f 298/454/320 297/450/318 325/451/318 326/455/320
f 308/456/2 307/452/319 336/453/319 337/457/2
f 299/458/321 298/454/320 326/455/320 327/459/321
f 309/402/295 308/456/2 337/457/2 338/403/295
f 300/406/1 299/458/321 327/459/321 328/407/1
f 342/460/322 341/461/322 373/462/322 374/463/322
f 332/6/322 331/464/322 360/465/322 361/7/322
f 319/466/322 318/467/322 347/468/322 348/469/322
f 343/470/322 342/460/322 374/463/322 375/471/322
f 320/472/322 514/473/322 518/474/322 349/475/322
f 344/476/322 343/470/322 375/471/322 376/477/322
f 363/478/322 364/479/322 498/480/322 497/481/322
f 321/482/322 320/472/322 349/475/322 350/483/322
f 345/484/322 344/476/322 376/477/322 377/485/322
f 322/486/322 321/482/322 350/483/322 351/487/322
f 346/488/322 345/484/322 377/485/322 378/489/322
f 494/490/323 485/491/324 491/492/324 503/493/325
f 323/494/322 322/486/322 351/487/322 352/495/322
f 318/467/322 346/488/322 378/489/322 347/468/322
f 334/496/322 333/2/322 365/1/322 366/497/322
f 324/498/322 323/494/322 352/495/322 353/499/322
f 335/500/322 334/496/322 366/497/322 367/501/322
f 325/502/322 324/498/322 353/499/322 354/503/322
f 336/504/322 335/500/322 367/501/322 368/505/322
f 326/506/322 325/502/322 354/503/322 355/507/322
f 337/508/322 336/504/322 368/505/322 369/509/322
f 327/510/322 326/506/322 355/507/322 356/511/322
f 338/512/322 337/508/322 369/509/322 370/513/322
f 328/514/322 327/510/322 356/511/322 357/515/322
f 339/516/322 338/512/322 370/513/322 371/517/322
f 329/518/322 328/514/322 357/515/322 358/519/322
f 340/520/322 339/516/322 371/517/322 372/521/322
f 330/522/322 329/518/322 358/519/322 359/523/322
f 341/461/322 340/520/322 372/521/322 373/462/322
f 331/464/322 330/522/322 359/523/322 360/465/322
f 377/524/310 376/525/308 408/526/308 409/527/310
f 364/528/326 363/529/327 395/530/327 396/531/326
f 351/532/311 350/533/309 382/534/309 383/535/311
f 378/536/312 377/524/310 409/527/310 410/537/312
f 365/538/328 481/539/329 480/540/329
f 352/541/313 351/532/311 383/535/311 384/542/313
f 347/543/304 378/536/312 410/537/312 379/544/304
f 366/545/314 365/538/328 397/546/330 398/547/314
f 353/548/316 352/541/313 384/542/313 385/549/316
f 367/550/317 366/545/314 398/547/314 399/551/317
f 354/552/318 353/548/316 385/549/316 386/553/318
f 368/554/319 367/550/317 399/551/317 400/555/319
f 355/556/320 354/552/318 386/553/318 387/557/320
f 369/558/2 368/554/319 400/555/319 401/559/2
f 356/560/321 355/556/320 387/557/320 388/561/321
f 370/562/295 369/558/2 401/559/2 402/563/295
f 357/564/1 356/560/321 388/561/321 389/565/1
f 371/566/294 370/562/295 402/563/295 403/567/294
f 358/568/296 357/564/1 389/565/1 390/569/296
f 372/570/297 371/566/294 403/567/294 404/571/297
f 359/572/298 358/568/296 390/569/296 391/573/298
f 373/574/299 372/570/297 404/571/297 405/575/299
f 360/576/300 359/572/298 391/573/298 392/577/300
f 374/578/301 373/574/299 405/575/299 406/579/301
f 348/580/303 347/581/304 379/582/304 380/583/303
f 375/584/305 374/578/301 406/579/301 407/585/305
f 349/586/306 518/587/307 348/580/303 380/583/303 381/588/306
f 376/525/308 375/584/305 407/585/305 408/526/308
f 363/529/327 362/589/331 394/590/331 395/530/327
f 350/533/309 349/586/306 381/588/306 382/534/309
f 399/591/322 398/592/322 430/593/322 431/594/322
f 386/595/322 385/596/322 417/597/322 418/598/322
f 400/599/322 399/591/322 431/594/322 432/600/322
f 387/601/322 386/595/322 418/598/322 419/602/322
f 401/603/322 400/599/322 432/600/322 433/604/322
f 388/605/322 387/601/322 419/602/322 420/606/322
f 402/607/322 401/603/322 433/604/322 434/608/322
f 389/609/322 388/605/322 420/606/322 421/610/322
f 403/611/322 402/607/322 434/608/322 435/612/322
f 390/613/322 389/609/322 421/610/322 422/614/322
f 404/615/322 403/611/322 435/612/322 436/616/322
f 391/617/322 390/613/322 422/614/322 423/618/322
f 405/619/322 404/615/322 436/616/322 437/620/322
f 392/621/322 391/617/322 423/618/322 424/622/322
f 406/623/322 405/619/322 437/620/322 438/624/322
f 393/625/322 392/621/322 424/622/322 425/626/322
f 380/627/322 379/628/322 411/629/322 412/630/322
f 407/631/322 406/623/322 438/624/322 439/632/322
f 394/633/322 393/625/322 425/626/322 426/634/322
f 381/635/322 380/627/322 412/630/322 413/636/322
f 408/637/322 407/631/322 439/632/322 440/638/322
f 395/639/322 394/633/322 426/634/322 427/640/322
f 382/641/322 381/635/322 413/636/322 414/642/322
f 409/643/322 408/637/322 440/638/322 441/644/322
f 396/645/322 395/639/322 427/640/322 428/646/322
f 383/647/322 382/641/322 414/642/322 415/648/322
f 410/649/322 409/643/322 441/644/322 442/650/322
f 397/651/322 480/652/322 396/645/322 428/646/322 429/653/322
f 384/654/322 383/647/322 415/648/322 416/655/322
f 379/628/322 410/649/322 442/650/322 411/629/322
f 398/592/322 397/651/322 429/653/322 430/593/322
f 385/596/322 384/654/322 416/655/322 417/597/322
f 434/656/295 433/657/2 465/658/2 466/659/295
f 421/660/1 420/661/321 452/662/321 453/663/1
f 435/664/294 434/656/295 466/659/295 467/665/294
f 422/666/296 421/660/1 453/663/1 454/667/296
f 436/668/297 435/664/294 467/665/294 468/669/297
f 423/670/298 422/666/296 454/667/296 455/671/298
f 437/672/299 436/668/297 468/669/297 469/673/299
f 424/674/300 423/670/298 455/671/298 456/675/300
f 438/676/301 437/672/299 469/673/299 470/677/301
f 425/678/332 424/674/300 456/675/300 457/679/332
f 412/680/303 411/681/304 443/682/304 444/683/303
f 439/684/305 438/676/301 470/677/301 471/685/305
f 426/686/331 425/678/332 457/679/332 458/687/331
f 413/688/306 412/680/303 444/683/303 445/689/306
f 440/690/308 439/684/305 471/685/305 472/691/308
f 427/692/327 426/686/331 458/687/331 459/693/327
f 414/694/309 413/688/306 445/689/306 446/695/309
f 441/696/310 440/690/308 472/691/308 473/697/310
f 428/698/326 427/692/327 459/693/327 460/699/326
f 415/700/311 414/694/309 446/695/309 447/701/311
f 442/702/312 441/696/310 473/697/310 474/703/312
f 429/704/330 428/698/326 460/699/326 461/705/330
f 416/706/313 415/700/311 447/701/311 448/707/313
f 411/708/304 442/702/312 474/703/312 443/709/304
f 430/710/314 429/704/330 461/705/330 462/711/314
f 417/712/316 416/706/313 448/707/313 449/713/316
f 431/714/317 430/710/314 462/711/314 463/715/317
f 418/716/318 417/712/316 449/713/316 450/717/318
f 432/718/319 431/714/317 463/715/317 464/719/319
f 419/720/320 418/716/318 450/717/318 451/721/320
f 433/657/2 432/718/319 464/719/319 465/658/2
f 420/661/321 419/720/320 451/721/320 452/662/321
f 361/722/333 360/576/300 392/577/300 393/723/332
f 485/491/293 483/724/293 489/725/293 491/492/293
f 147/726/293 146/727/293 478/728/293 479/729/293
f 475/730/293 305/400/293 479/729/293
f 147/726/293 479/729/293 305/400/293 148/399/293
f 146/727/293 145/731/293 477/732/293 478/728/293
f 145/731/293 144/733/293 476/734/293 477/732/293
f 144/733/293 143/735/293 486/736/293 476/734/293
f 143/735/293 142/397/293 303/398/293 486/736/293
f 304/737/293 486/736/293 303/398/293
f 480/540/329 481/539/329 364/528/326 396/531/326
f 479/738/334 485/739/329 494/740/335
f 486/741/336 506/742/336 484/743/331 476/744/331
f 393/723/332 504/745/336 505/746/336 361/722/333
f 489/747/337 503/748/338 491/749/329
f 484/743/331 482/750/327 477/751/327 476/744/331
f 483/752/326 485/739/329 479/738/334 478/753/326
f 362/754/322 363/478/322 497/481/322 487/755/322
f 482/750/327 483/752/326 478/753/326 477/751/327
f 483/724/293 482/756/293 495/757/293 489/725/293
f 364/479/322 481/758/322 488/759/322 498/480/322
f 504/760/322 512/761/322 507/762/322
f 482/756/293 484/763/293 490/764/293 495/757/293
f 487/765/331 497/766/327 496/767/327 500/768/331
f 500/768/331 496/767/327 495/769/327 490/770/331
f 497/766/327 498/771/339 499/772/340 496/767/327
f 496/767/327 499/772/340 489/747/337 495/769/327
f 498/771/339 488/773/329 501/774/341
f 498/771/339 501/774/341 502/775/342 499/772/340
f 499/772/340 502/775/342 503/748/338 489/747/337
f 481/758/343 492/776/344 501/777/345 488/759/343
f 492/776/344 493/778/294 502/779/294 501/777/345
f 493/778/294 494/490/323 503/493/325 502/779/294
f 365/538/328 493/780/346 492/781/347
f 479/738/348 494/740/349 493/780/346 365/538/328
f 481/539/329 365/538/328 492/781/347
f 397/546/330 365/538/328 480/540/329
f 500/768/331 515/782/336 513/783/336 487/765/331
f 490/770/331 517/784/336 515/782/336 500/768/331
f 490/770/331 516/785/336 517/784/336
f 484/763/293 506/786/293 516/787/293 490/764/293
f 487/765/331 513/783/336 512/788/336
f 362/589/331 504/745/336 393/723/332 394/590/331
f 361/722/350 505/746/336 506/742/336 486/741/336
f 504/760/320 511/789/320 510/790/320 505/791/320
f 510/790/320 509/792/320 506/793/320 505/791/320
f 507/762/320 511/789/320 504/760/320
f 508/794/320 506/793/320 509/792/320
f 513/10/351 515/795/351 525/796/351 523/11/351
f 517/784/336 516/785/336 508/797/336 520/798/336
f 518/474/322 514/473/322 319/466/322 348/469/322
f 512/761/322 504/760/322 362/754/322 487/755/322
f 516/787/293 506/786/293 508/799/293
f 512/788/336 513/783/336 521/800/336 507/801/336
f 521/800/336 519/802/336 510/803/336 511/804/336
f 519/802/336 520/798/336 509/805/336 510/803/336
f 507/801/336 521/800/336 511/804/336
f 520/798/336 508/797/336 509/805/336
f 525/806/336 527/807/336 526/808/336 524/809/336
f 523/810/336 525/806/336 524/809/336 522/811/336
f 519/812/352 521/9/352 522/12/352 524/813/352
f 515/795/351 517/13/351 527/16/351 525/796/351
f 520/814/352 519/812/352 524/813/352 526/815/352
f 470/677/353 469/673/354 554/816/355 555/817/356
f 457/679/357 456/675/358 541/818/359 542/819/360
f 444/683/361 443/682/362 528/820/363 529/821/364
f 471/685/365 470/677/353 555/817/356 556/822/366
f 458/687/367 457/679/357 542/819/360 543/823/368
f 445/689/369 444/683/361 529/821/364 530/824/370
f 472/691/371 471/685/365 556/822/366 557/825/372
f 459/693/373 458/687/367 543/823/368 544/826/374
f 446/695/375 445/689/369 530/824/370 531/827/376
f 473/697/377 472/691/371 557/825/372 558/828/378
f 460/699/379 459/693/373 544/826/374 545/829/380
f 447/701/381 446/695/375 531/827/376 532/830/382
f 474/703/383 473/697/377 558/828/378 559/831/384
f 461/705/385 460/699/379 545/829/380 546/832/386
f 448/707/387 447/701/381 532/830/382 533/833/388
f 443/709/362 474/703/383 559/831/384 528/834/363
f 462/711/389 461/705/385 546/832/386 547/835/390
f 449/713/391 448/707/387 533/833/388 534/836/392
f 463/715/393 462/711/389 547/835/390 548/837/394
f 450/717/395 449/713/391 534/836/392 535/838/396
f 464/719/397 463/715/393 548/837/394 549/839/398
f 451/721/399 450/717/395 535/838/396 536/840/400
f 465/658/401 464/719/397 549/839/398 550/841/402
f 452/662/403 451/721/399 536/840/400 537/842/404
f 466/659/405 465/658/401 550/841/402 551/843/406
f 453/663/407 452/662/403 537/842/404 538/844/408
f 467/665/409 466/659/405 551/843/406 552/845/410
f 454/667/411 453/663/407 538/844/408 539/846/412
f 468/669/413 467/665/409 552/845/410 553/847/414
f 455/671/415 454/667/411 539/846/412 540/848/416
f 469/673/354 468/669/413 553/847/414 554/816/355
f 456/675/358 455/671/415 540/848/416 541/818/359
f 532/830/382 531/827/376 563/849/322 564/850/322
f 559/831/384 558/828/378 590/851/322 591/852/322
f 546/832/386 545/829/380 577/853/322 578/854/322
f 533/833/388 532/830/382 564/850/322 565/855/322
f 528/834/363 559/831/384 591/852/322 560/856/322
f 547/835/390 546/832/386 578/854/322 579/857/322
f 534/836/392 533/833/388 565/855/322 566/858/322
f 548/837/394 547/835/390 579/857/322 580/859/322
f 535/838/396 534/836/392 566/858/322 567/860/322
f 549/839/398 548/837/394 580/859/322 581/861/322
f 536/840/400 535/838/396 567/860/322 568/862/322
f 550/841/402 549/839/398 581/861/322 582/863/322
f 537/842/404 536/840/400 568/862/322 569/864/322
f 551/843/406 550/841/402 582/863/322 583/865/322
f 538/844/408 537/842/404 569/864/322 570/866/322
f 552/845/410 551/843/406 583/865/322 584/867/322
f 539/846/412 538/844/408 570/866/322 571/868/322
f 553/847/414 552/845/410 584/867/322 585/869/322
f 540/848/416 539/846/412 571/868/322 572/870/322
f 554/816/355 553/847/414 585/869/322 586/871/322
f 541/818/359 540/848/416 572/870/322 573/872/322
f 555/817/356 554/816/355 586/871/322 587/873/322
f 542/819/360 541/818/359 573/872/322 574/874/322
f 529/821/364 528/820/363 560/875/322 561/876/322
f 556/822/366 555/817/356 587/873/322 588/877/322
f 543/823/368 542/819/360 574/874/322 575/878/322
f 530/824/370 529/821/364 561/876/322 562/879/322
f 557/825/372 556/822/366 588/877/322 589/880/322
f 544/826/374 543/823/368 575/878/322 576/881/322
f 531/827/376 530/824/370 562/879/322 563/849/322
f 558/828/378 557/825/372 589/880/322 590/851/322
f 545/829/380 544/826/374 576/881/322 577/853/322
f 567/860/295 566/858/2 598/882/2 599/883/295
f 581/861/313 580/859/311 612/884/311 613/885/313
f 568/862/294 567/860/295 599/883/295 600/886/294
f 582/863/316 581/861/313 613/885/313 614/887/316
f 569/864/297 568/862/294 600/886/294 601/888/297
f 583/865/318 582/863/316 614/887/316 615/889/318
f 570/866/299 569/864/297 601/888/297 602/890/299
f 584/867/320 583/865/318 615/889/318 616/891/320
f 571/868/301 570/866/299 602/890/299 603/892/301
f 585/869/321 584/867/320 616/891/320 617/893/321
f 572/870/305 571/868/301 603/892/301 604/894/305
f 586/871/1 585/869/321 617/893/321 618/895/1
f 573/872/308 572/870/305 604/894/305 605/896/308
f 587/873/296 586/871/1 618/895/1 619/897/296
f 574/874/310 573/872/308 605/896/308 606/898/310
f 561/876/326 560/875/327 592/899/327 593/900/326
f 588/877/298 587/873/296 619/897/296 620/901/298
f 575/878/312 574/874/310 606/898/310 607/902/312
f 562/879/330 561/876/326 593/900/326 594/903/330
f 589/880/300 588/877/298 620/901/298 621/904/300
f 576/881/304 575/878/312 607/902/312 608/905/304
f 563/849/314 562/879/330 594/903/330 595/906/314
f 590/851/332 589/880/300 621/904/300 622/907/332
f 577/853/303 576/881/304 608/905/304 609/908/303
f 564/850/317 563/849/314 595/906/314 596/909/317
f 591/852/331 590/851/332 622/907/332 623/910/331
f 578/854/306 577/853/303 609/908/303 610/911/306
f 565/855/319 564/850/317 596/909/317 597/912/319
f 560/856/327 591/852/331 623/910/331 592/913/327
f 579/857/309 578/854/306 610/911/306 611/914/309
f 566/858/2 565/855/319 597/912/319 598/882/2
f 580/859/311 579/857/309 611/914/309 612/884/311
f 602/915/322 601/916/322 624/917/322
f 616/918/322 615/919/322 624/917/322
f 603/920/322 602/915/322 624/917/322
f 617/921/322 616/918/322 624/917/322
f 604/922/322 603/920/322 624/917/322
f 618/923/322 617/921/322 624/917/322
f 605/924/322 604/922/322 624/917/322
f 619/925/322 618/923/322 624/917/322
f 606/926/322 605/924/322 624/917/322
f 593/927/322 592/928/322 624/917/322
f 620/929/322 619/925/322 624/917/322
f 607/930/322 606/926/322 624/917/322
f 594/931/322 593/927/322 624/917/322
f 621/932/322 620/929/322 624/917/322
f 608/933/322 607/930/322 624/917/322
f 595/934/322 594/931/322 624/917/322
f 622/935/322 621/932/322 624/917/322
f 609/936/322 608/933/322 624/917/322
f 596/937/322 595/934/322 624/917/322
f 623/938/322 622/935/322 624/917/322
f 610/939/322 609/936/322 624/917/322
f 597/940/322 596/937/322 624/917/322
f 592/928/322 623/938/322 624/917/322
f 611/941/322 610/939/322 624/917/322
f 598/942/322 597/940/322 624/917/322
f 612/943/322 611/941/322 624/917/322
f 599/944/322 598/942/322 624/917/322
f 613/945/322 612/943/322 624/917/322
f 600/946/322 599/944/322 624/917/322
f 614/947/322 613/945/322 624/917/322
f 601/916/322 600/946/322 624/917/322
f 615/919/322 614/947/322 624/917/322
